<svg width="153" height="113" viewBox="0 0 153 113" fill="none" xmlns="http://www.w3.org/2000/svg">
<path d="M41.5673 24.245C43.5304 23.6507 45.8731 23.179 48.5955 22.8299C49.8641 22.6601 51.1605 22.5374 52.4661 22.4431C57.1053 12.9431 70.1617 2.26392 87.0886 2.46203C87.0886 2.46203 88.3572 -0.141731 89.7091 0.235626C90.6073 0.480909 90.6999 1.9526 90.737 2.87713C90.7925 4.10354 90.0795 5.6507 89.1998 5.40542C87.8479 5.02806 87.1349 3.35826 87.1349 3.35826C87.1349 3.35826 68.0319 1.41487 55.2163 22.3205C55.8089 22.3016 56.4108 22.2922 57.022 22.2922C58.022 22.2922 59.2443 22.3393 60.6703 22.4148C61.9667 22.4808 63.3094 22.6129 64.6984 22.8016C69.3098 15.4809 80.4771 7.98089 93.9687 9.25447C93.9687 9.25447 95.1817 7.21674 96.2558 7.61296C96.9781 7.87711 96.9503 9.08466 96.9225 9.84881C96.8855 10.8488 96.191 12.0658 95.4965 11.8111C94.4224 11.4148 93.9501 9.99031 93.9501 9.99031C93.9501 9.99031 78.6437 7.14127 66.8096 23.1412C67.7541 23.3205 68.6893 23.5469 69.6153 23.8016C71.0969 24.2167 72.4303 24.7639 73.6063 25.4525C74.7823 26.1412 75.7361 26.9808 76.4676 27.9903C77.2084 28.9903 77.5695 30.1978 77.5695 31.6129C77.5695 32.9525 77.1713 34.1506 76.3843 35.2167C75.5972 36.2733 74.6156 37.2261 73.4582 38.0751C72.3007 38.9148 71.0876 39.6412 69.8098 40.2544C68.5412 40.8676 67.4208 41.3864 66.4577 41.8204C63.8279 43.0751 61.8556 44.16 60.5222 45.0657C59.1888 45.9619 58.5498 46.7355 58.5869 47.3581C58.6239 47.8298 58.9295 48.4053 59.5129 49.0751C60.087 49.7449 60.7259 50.4713 61.4204 51.2543C62.1149 52.0374 62.7353 52.9147 63.2724 53.877C63.8094 54.8392 64.0594 55.8581 64.0224 56.9147C63.9854 58.0939 63.7168 59.2826 63.2168 60.4807C62.7168 61.6788 62.0223 62.8581 61.1333 64.0185C60.2444 65.1788 59.1888 66.292 57.9757 67.3581C56.7627 68.4147 55.4385 69.3958 54.0125 70.3015C51.5402 71.8392 48.8363 73.2543 45.9102 74.5467C42.9748 75.8486 39.9006 76.9524 36.7059 77.8486C33.502 78.7543 30.2426 79.4146 26.9461 79.8297C23.6496 80.2448 20.3994 80.3203 17.1955 80.0656C13.9916 79.8109 10.9358 79.1788 8.019 78.1788C5.10216 77.1788 2.43533 75.7071 0 73.7826L0.175937 73.5467C2.45385 74.8486 5.0466 75.8486 7.96345 76.5562C10.871 77.2637 13.8897 77.6127 17.0196 77.6127C19.566 77.6127 22.168 77.4524 24.8348 77.1128C27.5017 76.7826 30.0944 76.3203 32.6223 75.726C35.1503 75.1411 37.5301 74.4524 39.7709 73.6694C42.0118 72.8769 43.9934 72.0373 45.7343 71.1316C46.9658 70.4618 48.3177 69.6411 49.7808 68.6788C51.2531 67.7166 52.6236 66.6883 53.8922 65.5845C55.17 64.4807 56.2256 63.3392 57.0775 62.1317C57.9294 60.9336 58.3554 59.7638 58.3554 58.6222C58.3554 57.6411 58.0498 56.7543 57.4572 55.9713C56.8553 55.1883 56.2071 54.4053 55.5126 53.6411C54.8181 52.877 54.1699 52.094 53.5773 51.2826C52.9754 50.4808 52.6791 49.5657 52.6791 48.5374C52.6791 47.4808 53.244 46.4053 54.3829 45.3298C55.5219 44.2449 56.9109 43.1695 58.5591 42.1129C60.1981 41.0468 61.9297 39.9997 63.7631 38.9525C65.5966 37.9148 67.217 36.8959 68.6245 35.8865C70.032 34.8865 71.0599 33.9148 71.6988 32.9714C72.3285 32.028 72.2822 31.1035 71.5506 30.1978C71.0876 29.6129 70.3561 29.094 69.3468 28.6695C68.3467 28.2355 67.1615 27.8676 65.791 27.5752C64.4206 27.2827 62.8927 27.0563 61.2167 26.8959C59.5406 26.7355 57.7905 26.6601 55.9756 26.6601C53.1977 26.6601 50.3456 26.8676 47.4103 27.2827C44.4749 27.6884 41.7988 28.2921 39.3635 29.0752C38.669 29.311 38.2431 29.3487 38.0949 29.1978C37.9375 29.0374 37.993 28.7355 38.2616 28.2827C38.5301 27.8299 38.9468 27.2638 39.5117 26.5752C40.0672 25.8865 40.7154 25.1506 41.447 24.3582L41.5673 24.245ZM58.4109 31.4336C55.7812 32.9336 53.3921 34.4525 51.2346 36.0091C49.0678 37.5657 47.0306 39.1506 45.1231 40.7827C43.2156 42.4147 41.4007 44.094 39.6876 45.8298C37.9653 47.5562 36.2152 49.3204 34.4465 51.1034C32.6686 52.8958 30.8352 54.7449 28.9462 56.6506C27.0572 58.5562 25.0108 60.509 22.8069 62.5185C25.0108 59.1788 27.2424 55.9336 29.5203 52.7921C31.7982 49.6411 34.1595 46.6317 36.6133 43.7638C39.0672 40.8959 41.6414 38.16 44.3453 35.5657C47.0399 32.9714 49.9197 30.5752 52.9662 28.3676C53.3921 28.0563 53.9292 27.9054 54.5866 27.9242C55.2441 27.9525 55.883 28.0186 56.5034 28.1318C56.5775 28.1318 56.6701 28.1506 56.7905 28.1978C56.9016 28.2355 57.0035 28.2544 57.0775 28.2544C58.0035 28.3299 58.7536 28.5374 59.3369 28.8676C59.911 29.2072 60.124 29.594 59.9759 30.0186V29.962C59.8925 30.3204 59.5869 30.6506 59.0499 30.9619C59.2443 30.8865 59.2073 30.9242 58.9573 31.0846C58.7073 31.245 58.5498 31.3582 58.4665 31.4336H58.4109ZM69.3561 64.6411C68.9671 65.3109 68.7356 65.8675 68.6523 66.3203C68.5782 66.7732 68.7356 67.16 69.1153 67.4713C69.3098 67.6316 69.6616 67.6411 70.1617 67.4996C70.6617 67.3675 71.2265 67.16 71.8377 66.8864C72.4581 66.6033 73.0692 66.2826 73.6619 65.9147C74.2638 65.5373 74.773 65.1883 75.199 64.8769C75.3564 64.7637 75.6527 64.5184 76.0972 64.1411C76.5417 63.7637 76.9954 63.3675 77.4584 62.9335C77.9214 62.4996 78.3659 62.0939 78.7918 61.726C79.2085 61.3487 79.5233 61.0656 79.7178 60.8675C80.0234 60.6694 80.2549 60.6977 80.4123 60.9524C80.5604 61.2071 80.5419 61.4336 80.3475 61.6317C80.153 61.8675 79.6159 62.3864 78.727 63.1977C77.8381 63.9996 76.7454 64.9807 75.4305 66.1128C73.2267 67.9996 70.8191 69.0656 68.1893 69.3015C67.6893 69.3392 67.1985 69.3486 66.717 69.3298C66.2355 69.3109 65.8003 69.226 65.4114 69.0656C65.0317 68.9052 64.7076 68.6977 64.4576 68.443C64.2076 68.1882 64.0687 67.8486 64.0224 67.4147C63.9483 66.2732 64.3372 64.9241 65.1799 63.3769C66.0318 61.8203 67.1893 60.3581 68.6523 58.9807C69.3098 58.3487 70.1894 57.6694 71.2914 56.943C72.3933 56.2166 73.523 55.6977 74.6805 55.3864C75.3749 55.1883 76.0324 55.1128 76.6435 55.1789C77.2639 55.2355 77.8381 55.4807 78.3844 55.9147C78.8103 56.3487 79.0233 56.7449 79.0233 57.1222C79.0233 57.4996 78.9214 57.9147 78.727 58.3864C78.1899 59.6883 77.1436 60.943 75.6064 62.16C74.486 63.0279 73.3748 63.6411 72.2729 63.9902C71.171 64.3486 70.1987 64.5656 69.3561 64.6411ZM77.051 59.0373C76.8565 58.9241 76.6343 58.8958 76.3843 58.9524C76.1342 59.009 75.8564 59.0939 75.5416 59.2166C75.162 59.377 74.7545 59.5751 74.3286 59.8392C73.9026 60.0939 73.4859 60.3581 73.0878 60.6317C72.6803 60.9053 72.3007 61.1788 71.9581 61.4524C71.6062 61.7354 71.3191 61.9713 71.0876 62.16C70.7821 62.4807 70.5783 62.6977 70.4765 62.8109C70.3839 62.9335 70.3283 63.0185 70.3098 63.0751C70.2913 63.1411 70.2913 63.1694 70.3098 63.1694C70.3283 63.1694 70.3006 63.2071 70.2172 63.2826C70.8747 63.2826 71.6618 63.0656 72.56 62.6411C73.4674 62.2071 74.236 61.7543 74.8471 61.2826C75.4675 60.8109 75.9213 60.3958 76.2083 60.0373C76.5046 59.6883 76.7824 59.3581 77.051 59.0373ZM82.0883 64.6411C81.6994 65.3109 81.4679 65.8675 81.3938 66.3203C81.3197 66.7732 81.4679 67.16 81.8568 67.4713C82.0513 67.6316 82.3939 67.6411 82.8939 67.4996C83.4032 67.3675 83.9588 67.16 84.5792 66.8864C85.1903 66.6033 85.8015 66.2826 86.4034 65.9147C86.996 65.5373 87.5053 65.1883 87.9313 64.8769C88.0887 64.7637 88.385 64.5184 88.8295 64.1411C89.2739 63.7637 89.7277 63.3675 90.1907 62.9335C90.6536 62.4996 91.0981 62.0939 91.5241 61.726C91.95 61.3487 92.2556 61.0656 92.45 60.8675C92.7556 60.6694 92.9871 60.6977 93.1445 60.9524C93.3019 61.2071 93.2834 61.4336 93.089 61.6317C92.8945 61.8675 92.3482 62.3864 91.4685 63.1977C90.5796 63.9996 89.4776 64.9807 88.1628 66.1128C85.9682 67.9996 83.5514 69.0656 80.9308 69.3015C80.4308 69.3392 79.94 69.3486 79.4493 69.3298C78.9678 69.3109 78.5325 69.226 78.1529 69.0656C77.764 68.9052 77.4491 68.6977 77.1991 68.443C76.9491 68.1882 76.8009 67.8486 76.7639 67.4147C76.6806 66.2732 77.0695 64.9241 77.9214 63.3769C78.764 61.8203 79.9215 60.3581 81.3938 58.9807C82.0513 58.3487 82.9309 57.6694 84.0236 56.943C85.1255 56.2166 86.2552 55.6977 87.4127 55.3864C88.1072 55.1883 88.7646 55.1128 89.385 55.1789C89.9962 55.2355 90.5796 55.4807 91.1166 55.9147C91.5426 56.3487 91.7556 56.7449 91.7556 57.1222C91.7556 57.4996 91.6537 57.9147 91.4685 58.3864C90.9222 59.6883 89.8851 60.943 88.3387 62.16C87.2182 63.0279 86.1071 63.6411 85.0144 63.9902C83.9125 64.3486 82.9402 64.5656 82.0883 64.6411ZM89.7832 59.0373C89.5888 58.9241 89.3758 58.8958 89.1165 58.9524C88.8665 59.009 88.5887 59.0939 88.2831 59.2166C87.8942 59.377 87.4868 59.5751 87.0608 59.8392C86.6441 60.0939 86.2274 60.3581 85.82 60.6317C85.4126 60.9053 85.0422 61.1788 84.6903 61.4524C84.3477 61.7354 84.0514 61.9713 83.8199 62.16C83.5143 62.4807 83.3106 62.6977 83.218 62.8109C83.1161 62.9335 83.0606 63.0185 83.0421 63.0751C83.0235 63.1411 83.0235 63.1694 83.0421 63.1694C83.0606 63.1694 83.0328 63.2071 82.9587 63.2826C83.6069 63.2826 84.394 63.0656 85.3015 62.6411C86.2089 62.2071 86.9682 61.7543 87.5886 61.2826C88.1998 60.8109 88.6535 60.3958 88.9498 60.0373C89.2369 59.6883 89.5147 59.3581 89.7832 59.0373Z" fill="#408CD3"/>
<path d="M28.4276 87.8111C27.335 89.5752 26.3071 91.3677 25.3348 93.1884C24.3718 95.0186 23.557 96.6412 22.9088 98.0563C22.2606 99.6224 21.7513 101.075 21.3809 102.434C21.0013 103.783 20.7512 104.877 20.6123 105.707C20.5105 106.33 20.5846 106.726 20.8438 106.877C21.1031 107.037 21.455 107.037 21.918 106.877C22.3717 106.726 22.8995 106.453 23.4736 106.075C24.057 105.688 24.6218 105.283 25.1867 104.849C25.7515 104.415 26.2701 103.981 26.7423 103.547C27.2238 103.113 27.5942 102.783 27.8628 102.537C29.6684 100.764 31.5852 98.7073 33.6131 96.3677C35.641 94.028 37.5948 91.679 39.4838 89.3205C41.3821 86.9526 43.1415 84.7451 44.7712 82.679C46.4102 80.613 47.7343 78.9809 48.7622 77.764C49.2715 77.1696 49.8271 76.547 50.4197 75.8866C51.0123 75.2262 51.6883 74.83 52.4383 74.6885C52.8087 74.6224 53.2902 74.6791 53.8643 74.8489C54.4477 75.0187 54.957 75.2828 55.4015 75.6319C55.846 75.9715 56.1145 76.3866 56.2163 76.8489C56.3182 77.3206 56.096 77.8111 55.5496 78.3394C54.7996 79.6507 53.9384 81.1036 52.9476 82.679C51.9568 84.2639 50.929 85.896 49.8548 87.5941C48.7807 89.3016 47.7251 91.0375 46.688 92.8016C45.6509 94.5752 44.7342 96.3111 43.9286 98.0092C43.1322 99.7073 42.4748 101.339 41.9655 102.896C41.4562 104.462 41.1969 105.868 41.1969 107.113C41.1969 108.575 41.7155 109.566 42.7618 110.103C43.7989 110.641 45.0305 110.67 46.4565 110.188L46.6139 110.339C45.6601 111.207 44.5675 111.886 43.3452 112.368C42.1229 112.858 40.9562 113.047 39.845 112.943C38.7431 112.839 37.7986 112.386 37.0393 111.594C36.2707 110.792 35.891 109.556 35.891 107.896C35.891 106.16 36.2985 104.17 37.1133 101.915C37.9282 99.6601 38.9468 97.3582 40.1506 95.0186C41.3636 92.6696 42.66 90.396 44.0304 88.1696C45.4101 85.9526 46.6787 84.0092 47.8362 82.3394C47.0213 83.3111 46.1972 84.3111 45.3638 85.33C44.5305 86.3583 43.6878 87.3866 42.8359 88.4337C41.271 90.4054 39.6042 92.4526 37.8541 94.5752C36.104 96.6884 34.3261 98.6978 32.539 100.613C30.7518 102.519 28.9832 104.226 27.2331 105.736C25.4737 107.245 23.8162 108.377 22.2513 109.141C21.3253 109.556 20.4734 109.736 19.6956 109.67C18.9085 109.594 18.2326 109.339 17.6492 108.886C17.0751 108.434 16.6121 107.839 16.2695 107.085C15.9269 106.339 15.7602 105.519 15.7602 104.613C15.7602 103.509 15.9454 102.273 16.325 100.924C16.8343 99.1129 17.5751 97.1507 18.5474 95.0186C19.5197 92.8771 20.6494 90.6696 21.9458 88.3771C23.2329 86.0941 24.6589 83.8017 26.2053 81.5092C27.7517 79.2168 29.3536 77.0187 31.0111 74.896C32.6594 72.7828 34.3354 70.8206 36.0392 69.0187C37.743 67.2168 39.4098 65.6696 41.0488 64.3866C42.1044 63.5564 42.8637 62.8678 43.3174 62.33C43.7804 61.7923 44.0119 61.3866 44.0119 61.1131C44.0119 60.8961 43.6878 60.7923 43.0396 60.7923C42.2248 60.7923 41.1136 60.9621 39.7153 61.2923C38.3264 61.6225 36.817 62.047 35.1966 62.5659C33.5761 63.0848 31.9464 63.6508 30.2888 64.2546C28.6406 64.8678 27.159 65.4527 25.8534 66.0281C24.5385 66.6036 23.4736 67.1036 22.6588 67.5376C21.8346 67.9715 21.4828 68.2545 21.5846 68.3961L21.2235 68.4998C21.1587 68.1508 21.1031 67.8489 21.0475 67.5847C20.992 67.33 21.1216 67.0376 21.4272 66.7074C21.7328 66.3772 22.3069 65.9715 23.1403 65.5093C23.9737 65.0376 25.2608 64.4244 27.0016 63.6602C27.5757 63.4149 28.3258 63.1131 29.2425 62.7451C30.1685 62.3866 31.1871 61.9904 32.3075 61.5753C33.4372 61.1602 34.6224 60.7357 35.891 60.3017C37.1504 59.8678 38.4004 59.4904 39.6413 59.1602C40.8821 58.83 42.0859 58.5565 43.2433 58.3489C44.4008 58.1414 45.4564 58.0376 46.4102 58.0376C46.7806 58.0376 47.1973 58.0753 47.6603 58.1414C48.1233 58.2074 48.5492 58.3206 48.9381 58.481C49.327 58.6319 49.6604 58.8583 49.9382 59.1602C50.2067 59.4527 50.3456 59.8112 50.3456 60.2263C50.3456 60.7074 50.1049 61.2923 49.6234 61.9715C49.1511 62.6414 48.6048 63.3112 47.9936 63.9715C47.3825 64.6319 46.7621 65.2357 46.1324 65.7923C45.5027 66.3489 45.0305 66.7829 44.7249 67.0942C41.4932 70.2545 38.5393 73.5564 35.891 77.0092C33.2335 80.4621 30.7426 84.0564 28.4276 87.8111ZM60.9203 99.462C60.6425 99.745 60.374 99.9903 60.0962 100.217C59.8277 100.443 59.5591 100.66 59.2813 100.868C58.5683 101.462 57.735 101.943 56.7812 102.33C55.8274 102.707 54.7718 102.726 53.6143 102.377C53.2347 102.273 52.9569 101.971 52.7717 101.471C52.5865 100.962 52.6606 100.226 53.0032 99.2544C53.068 99.0469 53.1606 98.8677 53.281 98.7073C53.4014 98.5563 53.5032 98.3865 53.5866 98.2167C53.6699 98.0375 53.6977 97.8299 53.6606 97.5941C53.6329 97.3488 53.494 97.0186 53.2532 96.6035C53.5958 96.6695 54.0495 96.5846 54.6051 96.3394C55.17 96.1035 55.7256 95.7828 56.2719 95.4054C56.8182 95.028 57.2905 94.5941 57.6979 94.1318C58.1053 93.6601 58.3276 93.2167 58.3646 92.8016C58.4294 92.179 58.3276 91.896 58.059 91.9431C57.7812 91.9998 57.5127 92.1224 57.2349 92.3299C55.9108 93.2733 54.7163 94.2545 53.6606 95.2733C52.605 96.3016 51.5864 97.3299 50.5956 98.3677L49.4196 99.9809C49.0863 100.471 48.7807 100.868 48.5029 101.179C48.2344 101.49 47.9195 101.745 47.5584 101.934C47.1973 102.132 46.7713 102.254 46.2528 102.33C45.7435 102.396 45.0953 102.434 44.3175 102.434H43.8545C44.5397 101.49 45.4194 100.188 46.5121 98.528C47.6047 96.8582 48.7437 95.0941 49.9382 93.2167C51.1234 91.3488 52.2809 89.5092 53.4106 87.7073C54.5311 85.896 55.4663 84.3677 56.2163 83.1224C56.7256 82.3205 57.1516 81.6319 57.4942 81.0375C57.8368 80.4526 58.0776 80.0187 58.2072 79.7356C58.5128 79.1507 58.6887 78.6319 58.7165 78.179C58.7906 77.4809 58.8554 77.0941 58.9295 77.0092C58.9943 76.9243 59.2999 77.1036 59.8462 77.5564C60.4203 78.0375 60.7907 78.6413 60.9389 79.3489C61.0963 80.0564 60.9481 80.9243 60.5129 81.9243C60.4759 82.0281 60.2721 82.4243 59.8925 83.0941C59.5221 83.7734 59.0498 84.5847 58.4943 85.5469C57.9294 86.4998 57.3183 87.5186 56.6516 88.613C55.9848 89.7073 55.3737 90.7262 54.8088 91.6884C54.2533 92.6413 53.7625 93.4526 53.3551 94.1318C52.9476 94.8111 52.7069 95.1979 52.6421 95.3016C53.6606 94.2639 54.7533 93.2545 55.9108 92.2828C57.0682 91.3111 58.022 90.613 58.7721 90.1979C59.0776 90.0281 59.4295 89.8771 59.8184 89.7545C60.2073 89.6413 60.5592 89.6601 60.8648 89.8394C61.513 90.0092 61.9296 90.3016 62.1148 90.7167C62.3093 91.1413 62.3093 91.613 62.1426 92.1507C61.9759 92.6884 61.6704 93.2545 61.2259 93.8394C60.7814 94.4337 60.2907 94.9809 59.7443 95.4809C59.198 95.9903 58.6332 96.4148 58.059 96.7545C57.4757 97.1035 56.9479 97.2922 56.4756 97.3299C56.7442 97.679 56.9201 98.028 56.9849 98.3677C57.0497 98.7167 57.0775 99.0469 57.059 99.3582C57.0405 99.6695 57.0127 99.9431 56.9571 100.17C56.9108 100.396 56.883 100.556 56.883 100.66C56.883 101.009 57.3553 100.868 58.3091 100.245C59.4017 99.5469 60.4203 98.7922 61.3741 97.9526C62.3278 97.1224 63.2631 96.2545 64.189 95.3488C64.4205 95.1129 64.6243 95.0941 64.7724 95.3016C64.9298 95.5092 64.9021 95.6979 64.6983 95.8771L60.9203 99.462ZM69.3931 89.5281C69.1894 88.3488 69.3653 87.1507 69.9116 85.9337C70.4487 84.7168 71.0691 83.6602 71.7451 82.7545C72.1247 82.2734 72.5321 81.8205 72.9766 81.4054C73.4118 80.9904 73.8933 80.6413 74.4026 80.3677C74.7082 80.1885 75.0508 80.0753 75.4212 80.0281C75.8009 79.9715 76.125 80.1036 76.3935 80.4149C76.6713 80.8017 76.7824 81.2545 76.7268 81.7922C76.6805 82.33 76.5787 82.8111 76.449 83.2262C76.2731 83.8205 76.0324 84.4432 75.7083 85.1035C75.3842 85.7639 75.0045 86.396 74.5786 86.9998C74.1526 87.6035 73.6989 88.1507 73.1988 88.6413C72.7081 89.1224 72.1895 89.4903 71.6432 89.7356L71.3376 89.8866C71.3376 89.9243 71.3561 90.0752 71.3932 90.3299C71.421 90.5941 71.5228 91.2545 71.6988 92.3299C71.8006 93.1318 71.7451 93.9148 71.5413 94.679C71.3006 95.4431 70.8932 96.0846 70.319 96.6035C69.7357 97.1224 69.1616 97.6224 68.5782 98.1129C68.3097 98.3582 68.0319 98.5752 67.7633 98.7922C67.4855 98.9997 67.2726 99.2733 67.0966 99.6224C66.93 99.9997 66.9114 100.245 67.0503 100.349C67.1522 100.556 67.3281 100.622 67.5874 100.556C67.8374 100.49 68.1152 100.368 68.4023 100.188C68.6893 100.019 68.9579 99.8394 69.1894 99.6507C69.4301 99.4526 69.5875 99.3394 69.6523 99.3111C70.5691 98.6129 71.4765 97.8771 72.3562 97.0941C73.2451 96.3111 74.1341 95.528 75.0138 94.7262C75.2545 94.5564 75.4582 94.5375 75.6249 94.679C75.8009 94.8111 75.7638 95.028 75.5231 95.3016C75.0508 95.679 74.4119 96.2545 73.6155 97.0186C72.8099 97.7828 71.958 98.5469 71.0598 99.3111C70.1524 100.075 69.2819 100.736 68.4486 101.311C67.6152 101.887 66.93 102.17 66.3836 102.17C65.9021 102.17 65.4391 102.056 64.9761 101.83C64.5224 101.603 64.2076 101.254 64.0316 100.764C63.865 100.283 63.8372 99.8016 63.9576 99.3299C64.0779 98.8677 64.2724 98.4431 64.5409 98.0563C65.1891 97.1224 65.9669 96.3111 66.8651 95.6129C67.7726 94.9243 68.643 94.2262 69.4949 93.528C69.5968 93.4243 69.7542 93.3016 69.9579 93.1413C70.1616 92.9809 70.282 92.8394 70.319 92.6979C70.319 92.6601 70.2913 92.5752 70.2357 92.4431C70.1894 92.3016 70.0413 91.8865 69.8098 91.1884L69.4486 91.4998C68.356 92.4431 67.3281 93.396 66.3558 94.3677C65.3836 95.3394 64.3557 96.2733 63.2631 97.179C63.0964 97.2073 62.9482 97.179 62.8371 97.0941C62.7167 97.0092 62.689 96.8582 62.7538 96.6507C62.7538 96.6224 62.9205 96.4431 63.2445 96.1318C63.5686 95.8205 63.9668 95.4526 64.4391 95.0186C64.9206 94.5847 65.4391 94.0941 66.004 93.5564C66.5596 93.0186 67.0874 92.5186 67.5874 92.0469C68.0782 91.5752 68.5041 91.1601 68.8653 90.8016C69.2171 90.4337 69.4301 90.179 69.4949 90.0469L69.3931 89.5281ZM83.5976 100.245C84.6903 99.4148 85.8478 98.4526 87.0701 97.3582C88.3016 96.2639 89.3665 95.2639 90.2925 94.3677C90.561 94.1884 90.7647 94.1601 90.9036 94.2639C91.0425 94.3677 91.024 94.5564 90.8481 94.8299C89.7647 95.9431 88.6442 97.0846 87.5053 98.2639C86.3663 99.4431 85.1996 100.49 84.0051 101.387C83.431 101.839 82.8754 102.122 82.3475 102.226C81.8197 102.33 81.2179 102.273 80.5326 102.066C79.8474 101.858 79.477 101.509 79.4122 101.028C79.3381 100.537 79.3381 100.207 79.4122 100.037C79.1714 100.283 78.8103 100.556 78.3381 100.868C77.8565 101.179 77.338 101.462 76.7824 101.698C76.2176 101.943 75.6527 102.113 75.0971 102.198C74.5323 102.283 74.06 102.226 73.6896 102.019C73.31 101.811 72.9488 101.519 72.5877 101.16C72.2358 100.792 72.0229 100.434 71.9488 100.085C71.7821 99.4997 71.8932 98.8205 72.2821 98.0563C72.671 97.2922 73.1896 96.5375 73.8193 95.7922C74.4489 95.0469 75.0971 94.3771 75.7546 93.7639C76.4213 93.1601 76.9583 92.6979 77.3658 92.3865C78.014 91.8677 78.6714 91.4148 79.3288 91.0375C79.9956 90.6507 80.6345 90.3488 81.2456 90.1224C81.8568 89.896 82.4309 89.7733 82.9587 89.7545C83.4865 89.745 83.9588 89.8583 84.3662 90.0941C85.0144 90.4809 85.4033 90.9337 85.5422 91.4526C85.6718 91.9715 85.6811 92.5092 85.5607 93.0658C85.4496 93.6224 85.2366 94.1601 84.9218 94.679C84.6162 95.1979 84.3292 95.6507 84.0606 96.028L84.5699 96.2922C84.8755 96.462 85.0236 96.5846 85.0051 96.6507C84.9866 96.7262 84.894 96.896 84.7181 97.179L83.3939 99.3111C83.1254 99.7922 82.9494 100.179 82.8846 100.453C82.8105 100.726 83.0513 100.66 83.5976 100.245ZM84.3106 93.0658C84.144 92.8865 83.9125 92.7922 83.6254 92.7733C83.3384 92.7639 83.0143 92.8016 82.6531 92.9054C82.292 93.0092 81.9216 93.1601 81.5327 93.3488C81.1345 93.5375 80.7734 93.7545 80.4308 93.9997C79.8474 94.3771 79.3196 94.7733 78.8196 95.1696C78.3288 95.5658 77.9954 95.8771 77.8288 96.0846C76.5972 97.3677 75.7916 98.3394 75.4027 98.9997C75.0045 99.6601 74.9675 100.104 75.273 100.349C75.6434 100.622 76.0416 100.726 76.449 100.632C76.8565 100.547 77.1991 100.415 77.4676 100.245C78.5232 99.6884 79.4214 98.9714 80.153 98.0846C80.8845 97.1978 81.5882 96.3205 82.2735 95.4526C82.3753 95.2828 82.4587 95.245 82.5235 95.3488C82.5976 95.4526 82.8476 95.5658 83.2921 95.6696C83.4958 95.3865 83.6532 95.1507 83.7736 94.962C83.8939 94.7733 84.0699 94.4903 84.3106 94.1035C84.5514 93.6507 84.5514 93.3016 84.3106 93.0658ZM99.4875 82.0281C99.8579 82.3111 99.9597 82.8771 99.7931 83.7451C99.6171 84.613 99.2097 85.5564 98.5615 86.5564C98.2559 87.0469 97.9226 87.4809 97.5707 87.8583C97.2096 88.245 96.8577 88.5469 96.5243 88.7733C96.1817 88.9998 95.8669 89.1413 95.5798 89.2167C95.2835 89.2828 95.0428 89.245 94.8391 89.1035C94.4316 88.83 94.3112 88.2639 94.4779 87.4149C94.6446 86.5658 95.0705 85.6413 95.7558 84.6319C96.404 83.6602 97.0892 82.9243 97.8207 82.4243C98.5522 81.9149 99.1078 81.7828 99.4875 82.0281ZM98.3578 95.6129C97.7466 96.2073 97.1262 96.8205 96.4966 97.462C95.8669 98.1035 95.2094 98.7167 94.5335 99.3111C93.7464 99.9997 92.9037 100.632 92.0055 101.207C91.0981 101.783 90.1351 102.122 89.1165 102.226C88.4683 102.292 87.959 102.236 87.5793 102.066C87.3756 101.962 87.1719 101.839 86.9682 101.698C86.7645 101.566 86.6071 101.377 86.5052 101.132C86.3385 100.537 86.32 100.056 86.4589 99.6695C86.5978 99.2922 86.8015 98.8771 87.0701 98.4243C87.6812 97.4148 88.4498 96.3582 89.3665 95.245C90.2925 94.1413 91.0055 93.0092 91.5148 91.8677C91.8944 91.0375 92.0611 90.2356 92.0241 89.4715C92.876 89.4337 93.5242 89.5752 93.9686 89.8866C94.4131 90.1979 94.7094 90.613 94.8576 91.113C95.015 91.613 95.0428 92.1413 94.9409 92.6979C94.8391 93.2545 94.6446 93.7545 94.3761 94.2073C94.2094 94.4526 93.9779 94.8016 93.6908 95.245C93.3945 95.6979 93.0704 96.1884 92.7186 96.7073C92.3574 97.2262 92.0055 97.7545 91.6444 98.2922C91.2833 98.8299 90.9499 99.2922 90.6443 99.6695C90.4777 99.8771 90.4036 100.037 90.4129 100.141C90.4314 100.245 90.5055 100.302 90.6258 100.32C90.7369 100.339 90.8851 100.32 91.0518 100.273C91.2277 100.217 91.3759 100.16 91.5148 100.085C91.9592 99.8111 92.4963 99.4337 93.126 98.9431C93.7556 98.462 94.3853 97.9526 95.015 97.4337C95.6447 96.9148 96.2188 96.4243 96.7281 95.9809C97.2373 95.528 97.5985 95.1979 97.8022 94.9903C98.0707 94.679 98.3022 94.6318 98.4874 94.8582C98.6726 95.0846 98.6356 95.3394 98.3578 95.6129ZM113.331 95.0941C113.636 94.8111 113.877 94.7733 114.072 94.962C114.257 95.1507 114.192 95.4054 113.886 95.7167L110.164 99.3582C109.414 100.122 108.497 100.82 107.432 101.443C106.358 102.066 105.293 102.377 104.238 102.377C103.654 102.377 103.145 102.311 102.701 102.17C102.191 102 101.941 101.594 101.96 100.971C101.978 100.349 102.127 99.6884 102.395 98.9997C102.636 98.3016 102.96 97.6507 103.367 97.0469C103.775 96.4337 104.201 95.8582 104.645 95.3016C105.09 94.745 105.525 94.1884 105.969 93.6318C106.414 93.0847 106.803 92.4903 107.145 91.8677L107.099 91.6035C105.562 92.613 104.21 93.6601 103.034 94.7545C101.858 95.8488 100.765 96.9809 99.7375 98.1601C99.1634 98.8582 98.6726 99.462 98.2837 99.9809C97.8948 100.509 97.4874 100.934 97.0614 101.264C96.6355 101.594 96.1354 101.83 95.5798 101.99C95.015 102.141 94.2927 102.226 93.4038 102.226H93.0519L92.9963 102.17C94.8391 99.5658 96.404 97.3205 97.7003 95.4337C98.9874 93.5375 99.8949 92.0564 100.404 90.9809C100.543 90.6696 100.626 90.396 100.663 90.179C100.691 89.9526 100.738 89.7733 100.784 89.6507C100.839 89.5375 100.923 89.462 101.043 89.4432C101.164 89.4243 101.376 89.4903 101.682 89.6318C102.358 89.9432 102.821 90.3488 103.062 90.8488C103.303 91.3582 103.182 92.113 102.701 93.113L101.728 95.0375C102.247 94.5186 102.784 94.0092 103.34 93.5092C103.904 92.9998 104.469 92.5186 105.025 92.0469C105.59 91.5752 106.118 91.1601 106.608 90.8016C107.108 90.4337 107.534 90.1507 107.914 89.9432C108.321 89.6979 108.72 89.5752 109.118 89.5752C109.507 89.5752 109.905 89.613 110.312 89.679C110.96 89.8583 111.349 90.1318 111.488 90.5092C111.627 90.896 111.618 91.3111 111.46 91.7639C111.312 92.2167 111.062 92.6601 110.72 93.113C110.386 93.5658 110.09 93.9526 109.858 94.2639C109.646 94.5752 109.331 95.0186 108.886 95.5846C108.442 96.1601 108.007 96.7545 107.581 97.3865C107.155 98.0092 106.784 98.5941 106.46 99.1507C106.136 99.7073 105.969 100.141 105.969 100.453C106.006 100.726 106.321 100.736 106.914 100.481C107.516 100.217 108.423 99.5375 109.646 98.4243L113.331 95.0941ZM123.443 82.0281C123.813 82.3111 123.915 82.8771 123.748 83.7451C123.582 84.613 123.174 85.5564 122.526 86.5564C122.22 87.0469 121.887 87.4809 121.526 87.8583C121.165 88.245 120.822 88.5469 120.479 88.7733C120.137 88.9998 119.822 89.1413 119.535 89.2167C119.248 89.2828 118.998 89.245 118.794 89.1035C118.387 88.83 118.266 88.2639 118.433 87.4149C118.609 86.5658 119.035 85.6413 119.711 84.6319C120.359 83.6602 121.054 82.9243 121.785 82.4243C122.517 81.9149 123.063 81.7828 123.443 82.0281ZM122.322 95.6129C121.702 96.2073 121.081 96.8205 120.452 97.462C119.822 98.1035 119.165 98.7167 118.489 99.3111C117.702 99.9997 116.859 100.632 115.961 101.207C115.053 101.783 114.09 102.122 113.072 102.226C112.423 102.292 111.914 102.236 111.544 102.066C111.34 101.962 111.127 101.839 110.923 101.698C110.72 101.566 110.571 101.377 110.47 101.132C110.294 100.537 110.275 100.056 110.414 99.6695C110.553 99.2922 110.757 98.8771 111.025 98.4243C111.646 97.4148 112.405 96.3582 113.331 95.245C114.248 94.1413 114.961 93.0092 115.47 91.8677C115.85 91.0375 116.016 90.2356 115.988 89.4715C116.831 89.4337 117.479 89.5752 117.924 89.8866C118.368 90.1979 118.665 90.613 118.822 91.113C118.97 91.613 118.998 92.1413 118.896 92.6979C118.794 93.2545 118.609 93.7545 118.331 94.2073C118.165 94.4526 117.933 94.8016 117.646 95.245C117.359 95.6979 117.035 96.1884 116.674 96.7073C116.313 97.2262 115.961 97.7545 115.6 98.2922C115.248 98.8299 114.914 99.2922 114.609 99.6695C114.433 99.8771 114.359 100.037 114.377 100.141C114.396 100.245 114.461 100.302 114.581 100.32C114.701 100.339 114.84 100.32 115.016 100.273C115.183 100.217 115.34 100.16 115.47 100.085C115.914 99.8111 116.451 99.4337 117.081 98.9431C117.711 98.462 118.34 97.9526 118.97 97.4337C119.6 96.9148 120.174 96.4243 120.683 95.9809C121.192 95.528 121.554 95.1979 121.757 94.9903C122.026 94.679 122.257 94.6318 122.443 94.8582C122.637 95.0846 122.591 95.3394 122.322 95.6129ZM130.749 100.245C131.832 99.4148 132.999 98.4526 134.221 97.3582C135.443 96.2639 136.517 95.2639 137.434 94.3677C137.712 94.1884 137.916 94.1601 138.055 94.2639C138.184 94.3677 138.175 94.5564 137.999 94.8299C136.906 95.9431 135.795 97.0846 134.656 98.2639C133.517 99.4431 132.351 100.49 131.156 101.387C130.573 101.839 130.026 102.122 129.499 102.226C128.971 102.33 128.36 102.273 127.684 102.066C126.998 101.858 126.628 101.509 126.554 101.028C126.489 100.537 126.489 100.207 126.554 100.037C126.322 100.283 125.961 100.556 125.489 100.868C125.008 101.179 124.489 101.462 123.924 101.698C123.369 101.943 122.804 102.113 122.239 102.198C121.683 102.283 121.211 102.226 120.841 102.019C120.461 101.811 120.1 101.519 119.739 101.16C119.378 100.792 119.165 100.434 119.1 100.085C118.933 99.4997 119.044 98.8205 119.433 98.0563C119.822 97.2922 120.331 96.5375 120.961 95.7922C121.591 95.0469 122.239 94.3771 122.906 93.7639C123.572 93.1601 124.109 92.6979 124.517 92.3865C125.165 91.8677 125.813 91.4148 126.48 91.0375C127.147 90.6507 127.785 90.3488 128.397 90.1224C129.008 89.896 129.582 89.7733 130.11 89.7545C130.638 89.745 131.101 89.8583 131.517 90.0941C132.156 90.4809 132.554 90.9337 132.684 91.4526C132.823 91.9715 132.832 92.5092 132.712 93.0658C132.591 93.6224 132.378 94.1601 132.073 94.679C131.767 95.1979 131.48 95.6507 131.202 96.028L131.721 96.2922C132.026 96.462 132.165 96.5846 132.156 96.6507C132.138 96.7262 132.045 96.896 131.869 97.179L130.545 99.3111C130.267 99.7922 130.1 100.179 130.036 100.453C129.962 100.726 130.202 100.66 130.749 100.245ZM131.462 93.0658C131.295 92.8865 131.063 92.7922 130.776 92.7733C130.48 92.7639 130.156 92.8016 129.804 92.9054C129.443 93.0092 129.073 93.1601 128.674 93.3488C128.286 93.5375 127.924 93.7545 127.582 93.9997C126.998 94.3771 126.461 94.7733 125.971 95.1696C125.48 95.5658 125.146 95.8771 124.97 96.0846C123.748 97.3677 122.943 98.3394 122.544 98.9997C122.156 99.6601 122.118 100.104 122.424 100.349C122.794 100.622 123.183 100.726 123.591 100.632C124.007 100.547 124.341 100.415 124.619 100.245C125.674 99.6884 126.563 98.9714 127.295 98.0846C128.035 97.1978 128.739 96.3205 129.415 95.4526C129.517 95.2828 129.61 95.245 129.674 95.3488C129.739 95.4526 129.999 95.5658 130.443 95.6696C130.647 95.3865 130.804 95.1507 130.925 94.962C131.045 94.7733 131.221 94.4903 131.462 94.1035C131.702 93.6507 131.702 93.3016 131.462 93.0658ZM152.148 95.0941C152.454 94.8111 152.704 94.7733 152.889 94.962C153.074 95.1507 153.018 95.4054 152.713 95.7167L148.981 99.3582C148.231 100.122 147.324 100.82 146.25 101.443C145.175 102.066 144.111 102.377 143.055 102.377C142.481 102.377 141.972 102.311 141.527 102.17C141.018 102 140.768 101.594 140.786 100.971C140.805 100.349 140.944 99.6884 141.221 98.9997C141.453 98.3016 141.777 97.6507 142.194 97.0469C142.601 96.4337 143.027 95.8582 143.462 95.3016L144.796 93.6318C145.24 93.0847 145.629 92.4903 145.972 91.8677L145.916 91.6035C144.388 92.613 143.036 93.6601 141.86 94.7545C140.684 95.8488 139.582 96.9809 138.564 98.1601C137.981 98.8582 137.499 99.462 137.11 99.9809C136.712 100.509 136.305 100.934 135.879 101.264C135.453 101.594 134.962 101.83 134.397 101.99C133.841 102.141 133.11 102.226 132.23 102.226H131.869L131.823 102.17C133.656 99.5658 135.221 97.3205 136.517 95.4337C137.814 93.5375 138.712 92.0564 139.231 90.9809C139.36 90.6696 139.444 90.396 139.481 90.179C139.518 89.9526 139.555 89.7733 139.61 89.6507C139.657 89.5375 139.749 89.462 139.87 89.4432C139.981 89.4243 140.194 89.4903 140.499 89.6318C141.184 89.9432 141.647 90.3488 141.879 90.8488C142.12 91.3582 141.999 92.113 141.527 93.113L140.555 95.0375C141.064 94.5186 141.601 94.0092 142.166 93.5092C142.722 92.9998 143.286 92.5186 143.851 92.0469C144.416 91.5752 144.944 91.1601 145.435 90.8016C145.925 90.4337 146.361 90.1507 146.731 89.9432C147.148 89.6979 147.546 89.5752 147.935 89.5752C148.324 89.5752 148.731 89.613 149.139 89.679C149.787 89.8583 150.176 90.1318 150.315 90.5092C150.444 90.896 150.435 91.3111 150.287 91.7639C150.129 92.2167 149.889 92.6601 149.546 93.113C149.203 93.5658 148.916 93.9526 148.676 94.2639C148.472 94.5752 148.148 95.0186 147.703 95.5846C147.259 96.1601 146.833 96.7545 146.407 97.3865C145.981 98.0092 145.601 98.5941 145.277 99.1507C144.953 99.7073 144.796 100.141 144.796 100.453C144.833 100.726 145.148 100.736 145.74 100.481C146.333 100.217 147.25 99.5375 148.472 98.4243L152.148 95.0941Z" fill="#408CD3"/>
</svg>
