<svg width="34" height="35" viewBox="0 0 34 35" fill="none" xmlns="http://www.w3.org/2000/svg">
<path fill-rule="evenodd" clip-rule="evenodd" d="M9.99136 0.102754C11.8042 0.0186826 12.3822 0 17 0C21.6178 0 22.1958 0.0202395 24.0071 0.102754C25.8184 0.185269 27.0547 0.476407 28.1365 0.898324C29.2694 1.32958 30.2971 2.00371 31.1471 2.87557C32.0125 3.7303 32.6802 4.76407 33.1067 5.90683C33.5271 6.99665 33.8145 8.24216 33.898 10.0637C33.9815 11.8931 34 12.4753 34 17.1258C34 21.7777 33.9799 22.36 33.898 24.1862C33.8161 26.0078 33.5271 27.2533 33.1067 28.3431C32.6802 29.486 32.0114 30.5215 31.1471 31.3775C30.2971 32.2493 29.2694 32.9219 28.1365 33.3516C27.0547 33.7751 25.8184 34.0647 24.0102 34.1488C22.1958 34.2328 21.6178 34.2515 17 34.2515C12.3822 34.2515 11.8042 34.2313 9.99136 34.1488C8.18318 34.0662 6.94682 33.7751 5.865 33.3516C4.73051 32.9219 3.70263 32.2482 2.85291 31.3775C1.98804 30.5222 1.31876 29.4873 0.891727 28.3447C0.472909 27.2549 0.185455 26.0093 0.102 24.1878C0.0185454 22.3584 0 21.7762 0 17.1258C0 12.4738 0.0200909 11.8915 0.102 10.0668C0.183909 8.24216 0.472909 6.99665 0.891727 5.90683C1.31939 4.7642 1.98918 3.72923 2.85445 2.87401C3.70297 2.00294 4.72982 1.32871 5.86345 0.898324C6.94527 0.476407 8.18164 0.186826 9.98982 0.102754H9.99136ZM23.8695 3.18539C22.0768 3.10287 21.539 3.08575 17 3.08575C12.461 3.08575 11.9232 3.10287 10.1305 3.18539C8.47218 3.26168 7.57273 3.54036 6.97309 3.77545C6.18027 4.08683 5.61309 4.45581 5.01809 5.05521C4.45407 5.60799 4.02001 6.28092 3.74773 7.02467C3.51436 7.62874 3.23773 8.53485 3.162 10.2054C3.08009 12.0114 3.06309 12.5532 3.06309 17.1258C3.06309 21.6983 3.08009 22.2401 3.162 24.0461C3.23773 25.7167 3.51436 26.6228 3.74773 27.2268C4.01973 27.9695 4.454 28.6436 5.01809 29.1963C5.56673 29.7646 6.23591 30.202 6.97309 30.4761C7.57273 30.7111 8.47218 30.9898 10.1305 31.0661C11.9232 31.1486 12.4595 31.1658 17 31.1658C21.5405 31.1658 22.0768 31.1486 23.8695 31.0661C25.5278 30.9898 26.4273 30.7111 27.0269 30.4761C27.8197 30.1647 28.3869 29.7957 28.9819 29.1963C29.546 28.6436 29.9803 27.9695 30.2523 27.2268C30.4856 26.6228 30.7623 25.7167 30.838 24.0461C30.9199 22.2401 30.9369 21.6983 30.9369 17.1258C30.9369 12.5532 30.9199 12.0114 30.838 10.2054C30.7623 8.53485 30.4856 7.62874 30.2523 7.02467C29.9432 6.22599 29.5769 5.65461 28.9819 5.05521C28.4332 4.48706 27.7652 4.04979 27.0269 3.77545C26.4273 3.54036 25.5278 3.26168 23.8695 3.18539ZM14.8286 22.4052C16.0413 22.9137 17.3916 22.9823 18.6489 22.5993C19.9062 22.2163 20.9925 21.4055 21.7223 20.3053C22.4521 19.2051 22.7801 17.8838 22.6503 16.567C22.5204 15.2502 21.9408 14.0197 21.0105 13.0856C20.4174 12.4885 19.7002 12.0313 18.9107 11.7469C18.1212 11.4625 17.2788 11.358 16.4444 11.441C15.61 11.5239 14.8041 11.7921 14.085 12.2264C13.3658 12.6607 12.7512 13.2503 12.2853 13.9526C11.8194 14.6549 11.5139 15.4525 11.3908 16.2881C11.2677 17.1236 11.33 17.9763 11.5732 18.7846C11.8164 19.593 12.2346 20.337 12.7975 20.963C13.3604 21.5891 14.0541 22.0816 14.8286 22.4052ZM10.8213 10.9013C11.6327 10.0839 12.5959 9.43552 13.6561 8.99314C14.7162 8.55076 15.8525 8.32308 17 8.32308C18.1475 8.32308 19.2838 8.55076 20.3439 8.99314C21.4041 9.43551 22.3673 10.0839 23.1787 10.9013C23.9901 11.7187 24.6338 12.6891 25.0729 13.7571C25.512 14.8251 25.738 15.9698 25.738 17.1258C25.738 18.2817 25.512 19.4264 25.0729 20.4944C24.6338 21.5624 23.9901 22.5328 23.1787 23.3502C21.54 25.001 19.3175 25.9284 17 25.9284C14.6825 25.9284 12.46 25.001 10.8213 23.3502C9.18257 21.6994 8.26196 19.4604 8.26196 17.1258C8.26196 14.7911 9.18257 12.5521 10.8213 10.9013ZM27.676 9.63401C27.8771 9.44294 28.038 9.21316 28.1494 8.95828C28.2607 8.70341 28.3202 8.42862 28.3242 8.15019C28.3282 7.87176 28.2768 7.59535 28.1728 7.33731C28.0689 7.07928 27.9147 6.84487 27.7192 6.64797C27.5238 6.45106 27.2911 6.29567 27.0349 6.19099C26.7788 6.0863 26.5044 6.03445 26.228 6.03851C25.9516 6.04257 25.6789 6.10246 25.4259 6.21462C25.1729 6.32678 24.9448 6.48894 24.7551 6.6915C24.3862 7.08544 24.1842 7.60869 24.1921 8.15019C24.1999 8.69169 24.4169 9.2088 24.7971 9.59173C25.1772 9.97467 25.6905 10.1933 26.228 10.2012C26.7655 10.2091 27.285 10.0056 27.676 9.63401Z" fill="white"/>
</svg>
