<svg width="32" height="32" viewBox="0 0 32 32" fill="none" xmlns="http://www.w3.org/2000/svg">
<path fill-rule="evenodd" clip-rule="evenodd" d="M0.416672 3.02034C0.416672 2.32976 0.691004 1.66747 1.17932 1.17915C1.66763 0.690839 2.32993 0.416507 3.02051 0.416507H28.9767C29.3189 0.415948 29.6579 0.482896 29.9742 0.613519C30.2905 0.744141 30.578 0.935871 30.8201 1.17773C31.0622 1.4196 31.2543 1.70684 31.3852 2.02302C31.5162 2.3392 31.5835 2.67811 31.5833 3.02034V28.9765C31.5837 29.3188 31.5166 29.6578 31.3858 29.9741C31.255 30.2905 31.0632 30.5779 30.8212 30.82C30.5792 31.0621 30.2919 31.2542 29.9756 31.3851C29.6594 31.5161 29.3204 31.5834 28.9781 31.5832H3.02051C2.67845 31.5832 2.33974 31.5158 2.02373 31.3848C1.70773 31.2539 1.42062 31.062 1.17882 30.82C0.937009 30.5781 0.745242 30.2909 0.61447 29.9748C0.483699 29.6587 0.416486 29.32 0.416672 28.9779V3.02034ZM12.753 12.2995H16.9733V14.4188C17.5824 13.2005 19.1408 12.104 21.4825 12.104C25.9719 12.104 27.0358 14.5308 27.0358 18.9833V27.2312H22.4926V19.9977C22.4926 17.4618 21.8834 16.031 20.3364 16.031C18.1902 16.031 17.2977 17.5738 17.2977 19.9977V27.2312H12.753V12.2995ZM4.96134 27.0371H9.50601V12.104H4.96134V27.0357V27.0371ZM10.1563 7.23351C10.1648 7.62263 10.0956 8.00954 9.9526 8.37154C9.80961 8.73353 9.59575 9.06332 9.32358 9.34155C9.05141 9.61978 8.72641 9.84084 8.36765 9.99177C8.00889 10.1427 7.6236 10.2204 7.23438 10.2204C6.84517 10.2204 6.45987 10.1427 6.10111 9.99177C5.74235 9.84084 5.41735 9.61978 5.14518 9.34155C4.87301 9.06332 4.65915 8.73353 4.51617 8.37154C4.37318 8.00954 4.30394 7.62263 4.31251 7.23351C4.32932 6.46972 4.64455 5.74288 5.19068 5.20865C5.7368 4.67441 6.47041 4.37527 7.23438 4.37527C7.99836 4.37527 8.73196 4.67441 9.27808 5.20865C9.82421 5.74288 10.1394 6.46972 10.1563 7.23351Z" fill="white"/>
</svg>
