<svg width="34" height="34" viewBox="0 0 34 34" fill="none" xmlns="http://www.w3.org/2000/svg">
<path d="M17 0C7.61317 0 0 7.61317 0 17C0 26.3868 7.61317 34 17 34C26.3868 34 34 26.3868 34 17C34 7.61317 26.3911 0 17 0ZM8.38667 17.5709L8.45892 17.4562L12.8832 10.5372C12.898 10.5144 12.9186 10.4961 12.943 10.484C12.9673 10.472 12.9944 10.4667 13.0215 10.4688C13.0486 10.4708 13.0746 10.48 13.0969 10.4956C13.1191 10.5111 13.1368 10.5323 13.1481 10.557C13.8847 12.2131 14.5251 14.2729 14.2248 15.555C14.1001 16.082 13.7502 16.796 13.3549 17.4562C13.3042 17.5527 13.2489 17.6468 13.1892 17.7381C13.1749 17.7584 13.1557 17.7749 13.1335 17.7861C13.1112 17.7972 13.0865 17.8026 13.0617 17.8018H8.51842C8.4913 17.8023 8.46457 17.7953 8.44108 17.7818C8.41759 17.7682 8.3982 17.7486 8.38498 17.7249C8.37176 17.7012 8.3652 17.6744 8.36599 17.6473C8.36679 17.6202 8.37491 17.5938 8.3895 17.5709H8.38667ZM28.0982 19.9509C28.0985 19.9812 28.09 20.0108 28.0736 20.0363C28.0572 20.0617 28.0338 20.0818 28.0061 20.094C27.6618 20.2399 26.4902 20.7811 26.0029 21.4568C24.7591 23.188 23.8099 25.6643 21.6849 25.6643H12.8251C12.077 25.6632 11.3365 25.5147 10.6459 25.2273C9.95528 24.9399 9.32806 24.5191 8.80009 23.9892C8.27213 23.4593 7.85377 22.8305 7.56892 22.1388C7.28407 21.4471 7.13832 20.706 7.14 19.958V19.856C7.14 19.7738 7.208 19.7058 7.293 19.7058H12.2301C12.3293 19.7058 12.4001 19.7951 12.393 19.8928C12.3562 20.213 12.4171 20.5431 12.5701 20.842C12.8619 21.437 13.4711 21.8082 14.127 21.8082H16.5722V19.8999H14.1525C14.1241 19.8996 14.0964 19.8916 14.0723 19.8767C14.0482 19.8618 14.0286 19.8406 14.0156 19.8154C14.0026 19.7902 13.9968 19.7619 13.9987 19.7336C14.0006 19.7053 14.0102 19.6781 14.0264 19.6548L14.1157 19.5273C14.3423 19.2001 14.6696 18.6972 14.9954 18.122C15.2164 17.7338 15.4318 17.3202 15.6046 16.9037C15.6386 16.83 15.6655 16.7521 15.6967 16.677C15.7434 16.5438 15.7916 16.4192 15.8256 16.2959C15.8589 16.1914 15.8897 16.0861 15.9177 15.98C15.9984 15.6258 16.0324 15.2518 16.0324 14.8651C16.0324 14.7121 16.0268 14.552 16.0126 14.4018C16.0055 14.2361 15.9843 14.0689 15.9644 13.9032C15.9486 13.7549 15.9259 13.6074 15.8964 13.4612C15.8583 13.2385 15.812 13.0174 15.7576 12.7982L15.7378 12.7132C15.6952 12.5602 15.6584 12.4157 15.6102 12.2641C15.4754 11.7986 15.3203 11.3391 15.1456 10.8871C15.0847 10.717 15.0176 10.5493 14.9444 10.3842C14.8424 10.132 14.7376 9.90392 14.6427 9.69C14.5954 9.59835 14.551 9.50528 14.5095 9.41092C14.4634 9.30911 14.4148 9.2085 14.3636 9.10917C14.3296 9.03408 14.2885 8.96183 14.2616 8.89383L13.9627 8.34417C13.9216 8.26908 13.9896 8.177 14.0717 8.20108L15.9417 8.70683H15.9559L16.201 8.77767L16.473 8.85417L16.5722 8.88108V7.77183C16.5722 7.23492 17 6.8 17.5341 6.8C17.6602 6.79966 17.7851 6.82484 17.9012 6.87402C18.0173 6.9232 18.1223 6.99536 18.2098 7.08617C18.3907 7.26861 18.4925 7.51493 18.4932 7.77183V9.42083L18.6929 9.47608C18.7071 9.48317 18.7241 9.49025 18.7368 9.50017C18.785 9.53417 18.8558 9.588 18.9451 9.656C19.0159 9.70983 19.091 9.77783 19.1788 9.85008C19.4586 10.078 19.7298 10.3162 19.992 10.5641C20.2952 10.846 20.6352 11.1761 20.961 11.543C21.0531 11.6478 21.1409 11.7498 21.233 11.8632C21.3208 11.9751 21.42 12.0842 21.5022 12.1918C21.6141 12.3392 21.7288 12.4922 21.8351 12.6508C21.8818 12.7259 21.9399 12.8038 21.9838 12.8789C22.1198 13.0801 22.236 13.2869 22.3479 13.4952C22.3961 13.5901 22.4428 13.6949 22.4839 13.7969C22.61 14.076 22.7092 14.3579 22.7701 14.6441C22.7902 14.7048 22.804 14.7675 22.8112 14.8311V14.8453C22.831 14.926 22.8381 15.0152 22.8452 15.1059C22.8851 15.5246 22.8338 15.947 22.695 16.3441C22.6511 16.4631 22.61 16.5849 22.5562 16.7039C22.4499 16.9447 22.3281 17.1898 22.1822 17.4151C22.134 17.5001 22.0759 17.5879 22.0221 17.6729C21.9612 17.7622 21.896 17.8472 21.8422 17.9279C21.7643 18.0352 21.6825 18.1396 21.5971 18.241C21.522 18.343 21.4469 18.445 21.3619 18.5371C21.2472 18.6759 21.1352 18.8062 21.0148 18.9309C20.9468 19.0131 20.8732 19.0981 20.7938 19.1717C20.7202 19.2568 20.6408 19.3318 20.5728 19.3998C20.4538 19.5188 20.3603 19.6081 20.2782 19.686L20.0841 19.8588C20.0571 19.886 20.0204 19.9012 19.9821 19.9013H18.4932V21.8082H20.366C20.7839 21.8082 21.182 21.6608 21.505 21.386C21.6141 21.2911 22.0929 20.876 22.661 20.2498C22.6795 20.2285 22.7043 20.2136 22.7318 20.2073L27.9027 18.7099C27.9254 18.7034 27.9493 18.7021 27.9725 18.7064C27.9958 18.7106 28.0177 18.7201 28.0367 18.7343C28.0556 18.7484 28.071 18.7667 28.0817 18.7878C28.0924 18.8089 28.098 18.8322 28.0982 18.8558V19.9509Z" fill="white"/>
</svg>
