<svg width="97" height="81" viewBox="0 0 97 81" fill="none" xmlns="http://www.w3.org/2000/svg">
<path d="M41.5673 24.245C43.5304 23.6507 45.8731 23.179 48.5955 22.8299C49.8641 22.6601 51.1605 22.5374 52.4661 22.4431C57.1053 12.9431 70.1617 2.26392 87.0886 2.46203C87.0886 2.46203 88.3572 -0.141731 89.7091 0.235626C90.6073 0.480909 90.6999 1.9526 90.737 2.87713C90.7925 4.10354 90.0795 5.6507 89.1998 5.40542C87.8479 5.02806 87.1349 3.35826 87.1349 3.35826C87.1349 3.35826 68.0319 1.41487 55.2163 22.3205C55.8089 22.3016 56.4108 22.2922 57.022 22.2922C58.022 22.2922 59.2443 22.3393 60.6703 22.4148C61.9667 22.4808 63.3094 22.6129 64.6984 22.8016C69.3098 15.4809 80.4771 7.98089 93.9687 9.25447C93.9687 9.25447 95.1817 7.21674 96.2558 7.61296C96.9781 7.87711 96.9503 9.08466 96.9225 9.84881C96.8855 10.8488 96.191 12.0658 95.4965 11.8111C94.4224 11.4148 93.9501 9.99031 93.9501 9.99031C93.9501 9.99031 78.6437 7.14127 66.8096 23.1412C67.7541 23.3205 68.6893 23.5469 69.6153 23.8016C71.0969 24.2167 72.4303 24.7639 73.6063 25.4525C74.7823 26.1412 75.7361 26.9808 76.4676 27.9903C77.2084 28.9903 77.5695 30.1978 77.5695 31.6129C77.5695 32.9525 77.1713 34.1506 76.3843 35.2167C75.5972 36.2733 74.6156 37.2261 73.4582 38.0751C72.3007 38.9148 71.0876 39.6412 69.8098 40.2544C68.5412 40.8676 67.4208 41.3864 66.4577 41.8204C63.8279 43.0751 61.8556 44.16 60.5222 45.0657C59.1888 45.9619 58.5498 46.7355 58.5869 47.3581C58.6239 47.8298 58.9295 48.4053 59.5129 49.0751C60.087 49.7449 60.7259 50.4713 61.4204 51.2543C62.1149 52.0374 62.7353 52.9147 63.2724 53.877C63.8094 54.8392 64.0594 55.8581 64.0224 56.9147C63.9854 58.0939 63.7168 59.2826 63.2168 60.4807C62.7168 61.6788 62.0223 62.8581 61.1333 64.0185C60.2444 65.1788 59.1888 66.292 57.9757 67.3581C56.7627 68.4147 55.4385 69.3958 54.0125 70.3015C51.5402 71.8392 48.8363 73.2543 45.9102 74.5467C42.9748 75.8486 39.9006 76.9524 36.7059 77.8486C33.502 78.7543 30.2426 79.4146 26.9461 79.8297C23.6496 80.2448 20.3994 80.3203 17.1955 80.0656C13.9916 79.8109 10.9358 79.1788 8.019 78.1788C5.10216 77.1788 2.43533 75.7071 0 73.7826L0.175937 73.5467C2.45385 74.8486 5.0466 75.8486 7.96345 76.5562C10.871 77.2637 13.8897 77.6127 17.0196 77.6127C19.566 77.6127 22.168 77.4524 24.8348 77.1128C27.5017 76.7826 30.0944 76.3203 32.6223 75.726C35.1503 75.1411 37.5301 74.4524 39.7709 73.6694C42.0118 72.8769 43.9934 72.0373 45.7343 71.1316C46.9658 70.4618 48.3177 69.6411 49.7808 68.6788C51.2531 67.7166 52.6236 66.6883 53.8922 65.5845C55.17 64.4807 56.2256 63.3392 57.0775 62.1317C57.9294 60.9336 58.3554 59.7638 58.3554 58.6222C58.3554 57.6411 58.0498 56.7543 57.4572 55.9713C56.8553 55.1883 56.2071 54.4053 55.5126 53.6411C54.8181 52.877 54.1699 52.094 53.5773 51.2826C52.9754 50.4808 52.6791 49.5657 52.6791 48.5374C52.6791 47.4808 53.244 46.4053 54.3829 45.3298C55.5219 44.2449 56.9109 43.1695 58.5591 42.1129C60.1981 41.0468 61.9297 39.9997 63.7631 38.9525C65.5966 37.9148 67.217 36.8959 68.6245 35.8865C70.032 34.8865 71.0599 33.9148 71.6988 32.9714C72.3285 32.028 72.2822 31.1035 71.5506 30.1978C71.0876 29.6129 70.3561 29.094 69.3468 28.6695C68.3467 28.2355 67.1615 27.8676 65.791 27.5752C64.4206 27.2827 62.8927 27.0563 61.2167 26.8959C59.5406 26.7355 57.7905 26.6601 55.9756 26.6601C53.1977 26.6601 50.3456 26.8676 47.4103 27.2827C44.4749 27.6884 41.7988 28.2921 39.3635 29.0752C38.669 29.311 38.2431 29.3487 38.0949 29.1978C37.9375 29.0374 37.993 28.7355 38.2616 28.2827C38.5301 27.8299 38.9468 27.2638 39.5117 26.5752C40.0672 25.8865 40.7154 25.1506 41.447 24.3582L41.5673 24.245ZM58.4109 31.4336C55.7812 32.9336 53.3921 34.4525 51.2346 36.0091C49.0678 37.5657 47.0306 39.1506 45.1231 40.7827C43.2156 42.4147 41.4007 44.094 39.6876 45.8298C37.9653 47.5562 36.2152 49.3204 34.4465 51.1034C32.6686 52.8958 30.8352 54.7449 28.9462 56.6506C27.0572 58.5562 25.0108 60.509 22.8069 62.5185C25.0108 59.1788 27.2424 55.9336 29.5203 52.7921C31.7982 49.6411 34.1595 46.6317 36.6133 43.7638C39.0672 40.8959 41.6414 38.16 44.3453 35.5657C47.0399 32.9714 49.9197 30.5752 52.9662 28.3676C53.3921 28.0563 53.9292 27.9054 54.5866 27.9242C55.2441 27.9525 55.883 28.0186 56.5034 28.1318C56.5775 28.1318 56.6701 28.1506 56.7905 28.1978C56.9016 28.2355 57.0035 28.2544 57.0775 28.2544C58.0035 28.3299 58.7536 28.5374 59.3369 28.8676C59.911 29.2072 60.124 29.594 59.9759 30.0186V29.962C59.8925 30.3204 59.5869 30.6506 59.0499 30.9619C59.2443 30.8865 59.2073 30.9242 58.9573 31.0846C58.7073 31.245 58.5498 31.3582 58.4665 31.4336H58.4109ZM69.3561 64.6411C68.9671 65.3109 68.7356 65.8675 68.6523 66.3203C68.5782 66.7732 68.7356 67.16 69.1153 67.4713C69.3098 67.6316 69.6616 67.6411 70.1617 67.4996C70.6617 67.3675 71.2265 67.16 71.8377 66.8864C72.4581 66.6033 73.0692 66.2826 73.6619 65.9147C74.2638 65.5373 74.773 65.1883 75.199 64.8769C75.3564 64.7637 75.6527 64.5184 76.0972 64.1411C76.5417 63.7637 76.9954 63.3675 77.4584 62.9335C77.9214 62.4996 78.3659 62.0939 78.7918 61.726C79.2085 61.3487 79.5233 61.0656 79.7178 60.8675C80.0234 60.6694 80.2549 60.6977 80.4123 60.9524C80.5604 61.2071 80.5419 61.4336 80.3475 61.6317C80.153 61.8675 79.6159 62.3864 78.727 63.1977C77.8381 63.9996 76.7454 64.9807 75.4305 66.1128C73.2267 67.9996 70.8191 69.0656 68.1893 69.3015C67.6893 69.3392 67.1985 69.3486 66.717 69.3298C66.2355 69.3109 65.8003 69.226 65.4114 69.0656C65.0317 68.9052 64.7076 68.6977 64.4576 68.443C64.2076 68.1882 64.0687 67.8486 64.0224 67.4147C63.9483 66.2732 64.3372 64.9241 65.1799 63.3769C66.0318 61.8203 67.1893 60.3581 68.6523 58.9807C69.3098 58.3487 70.1894 57.6694 71.2914 56.943C72.3933 56.2166 73.523 55.6977 74.6805 55.3864C75.3749 55.1883 76.0324 55.1128 76.6435 55.1789C77.2639 55.2355 77.8381 55.4807 78.3844 55.9147C78.8103 56.3487 79.0233 56.7449 79.0233 57.1222C79.0233 57.4996 78.9214 57.9147 78.727 58.3864C78.1899 59.6883 77.1436 60.943 75.6064 62.16C74.486 63.0279 73.3748 63.6411 72.2729 63.9902C71.171 64.3486 70.1987 64.5656 69.3561 64.6411ZM77.051 59.0373C76.8565 58.9241 76.6343 58.8958 76.3843 58.9524C76.1342 59.009 75.8564 59.0939 75.5416 59.2166C75.162 59.377 74.7545 59.5751 74.3286 59.8392C73.9026 60.0939 73.4859 60.3581 73.0878 60.6317C72.6803 60.9053 72.3007 61.1788 71.9581 61.4524C71.6062 61.7354 71.3191 61.9713 71.0876 62.16C70.7821 62.4807 70.5783 62.6977 70.4765 62.8109C70.3839 62.9335 70.3283 63.0185 70.3098 63.0751C70.2913 63.1411 70.2913 63.1694 70.3098 63.1694C70.3283 63.1694 70.3006 63.2071 70.2172 63.2826C70.8747 63.2826 71.6618 63.0656 72.56 62.6411C73.4674 62.2071 74.236 61.7543 74.8471 61.2826C75.4675 60.8109 75.9213 60.3958 76.2083 60.0373C76.5046 59.6883 76.7824 59.3581 77.051 59.0373ZM82.0883 64.6411C81.6994 65.3109 81.4679 65.8675 81.3938 66.3203C81.3197 66.7732 81.4679 67.16 81.8568 67.4713C82.0513 67.6316 82.3939 67.6411 82.8939 67.4996C83.4032 67.3675 83.9588 67.16 84.5792 66.8864C85.1903 66.6033 85.8015 66.2826 86.4034 65.9147C86.996 65.5373 87.5053 65.1883 87.9313 64.8769C88.0887 64.7637 88.385 64.5184 88.8295 64.1411C89.2739 63.7637 89.7277 63.3675 90.1907 62.9335C90.6536 62.4996 91.0981 62.0939 91.5241 61.726C91.95 61.3487 92.2556 61.0656 92.45 60.8675C92.7556 60.6694 92.9871 60.6977 93.1445 60.9524C93.3019 61.2071 93.2834 61.4336 93.089 61.6317C92.8945 61.8675 92.3482 62.3864 91.4685 63.1977C90.5796 63.9996 89.4776 64.9807 88.1628 66.1128C85.9682 67.9996 83.5514 69.0656 80.9308 69.3015C80.4308 69.3392 79.94 69.3486 79.4493 69.3298C78.9678 69.3109 78.5325 69.226 78.1529 69.0656C77.764 68.9052 77.4491 68.6977 77.1991 68.443C76.9491 68.1882 76.8009 67.8486 76.7639 67.4147C76.6806 66.2732 77.0695 64.9241 77.9214 63.3769C78.764 61.8203 79.9215 60.3581 81.3938 58.9807C82.0513 58.3487 82.9309 57.6694 84.0236 56.943C85.1255 56.2166 86.2552 55.6977 87.4127 55.3864C88.1072 55.1883 88.7646 55.1128 89.385 55.1789C89.9962 55.2355 90.5796 55.4807 91.1166 55.9147C91.5426 56.3487 91.7556 56.7449 91.7556 57.1222C91.7556 57.4996 91.6537 57.9147 91.4685 58.3864C90.9222 59.6883 89.8851 60.943 88.3387 62.16C87.2182 63.0279 86.1071 63.6411 85.0144 63.9902C83.9125 64.3486 82.9402 64.5656 82.0883 64.6411ZM89.7832 59.0373C89.5888 58.9241 89.3758 58.8958 89.1165 58.9524C88.8665 59.009 88.5887 59.0939 88.2831 59.2166C87.8942 59.377 87.4868 59.5751 87.0608 59.8392C86.6441 60.0939 86.2274 60.3581 85.82 60.6317C85.4126 60.9053 85.0422 61.1788 84.6903 61.4524C84.3477 61.7354 84.0514 61.9713 83.8199 62.16C83.5143 62.4807 83.3106 62.6977 83.218 62.8109C83.1161 62.9335 83.0606 63.0185 83.0421 63.0751C83.0235 63.1411 83.0235 63.1694 83.0421 63.1694C83.0606 63.1694 83.0328 63.2071 82.9587 63.2826C83.6069 63.2826 84.394 63.0656 85.3015 62.6411C86.2089 62.2071 86.9682 61.7543 87.5886 61.2826C88.1998 60.8109 88.6535 60.3958 88.9498 60.0373C89.2369 59.6883 89.5147 59.3581 89.7832 59.0373Z" fill="#408CD3"/>
</svg>
