<svg width="227" height="60" viewBox="0 0 227 60" fill="none" xmlns="http://www.w3.org/2000/svg">
<g filter="url(#filter0_d_273_24)">
<path d="M73.5871 35.454C72.4454 34.8597 71.5696 34.0308 70.9128 32.9674C70.2716 31.9039 69.9432 30.6997 69.9432 29.3391C69.9432 27.9941 70.2716 26.7743 70.9128 25.7108C71.554 24.6474 72.4454 23.8185 73.5871 23.2242C74.7287 22.6299 75.9955 22.3328 77.4187 22.3328C78.7167 22.3328 79.874 22.5673 80.9062 23.0209C81.9227 23.4744 82.7673 24.1469 83.4241 25.0071L80.5778 27.5562C79.7489 26.5084 78.7793 25.9923 77.6533 25.9923C76.7149 25.9923 75.9486 26.2895 75.3856 26.8994C74.8069 27.5093 74.5254 28.3225 74.5254 29.3391C74.5254 30.3556 74.8069 31.1689 75.3856 31.7788C75.9642 32.3887 76.7149 32.6859 77.6533 32.6859C78.7793 32.6859 79.7489 32.1698 80.5778 31.122L83.4241 33.6711C82.7673 34.5313 81.9227 35.2038 80.9062 35.6573C79.8897 36.1108 78.7324 36.3454 77.4187 36.3454C75.9955 36.3454 74.7287 36.0483 73.5871 35.454Z" fill="white"/>
<path d="M97.9216 22.6611V36.0482H93.4019V31.1219H89.2263V36.0482H84.7065V22.6611H89.2263V27.3998H93.4019V22.6611H97.9216Z" fill="white"/>
<path d="M109.213 33.718H104.13L103.239 36.0482H98.6566L104.506 22.6611H108.932L114.781 36.0482H110.12L109.213 33.718ZM107.978 30.4651L106.679 27.1026L105.381 30.4651H107.978Z" fill="white"/>
<path d="M121.24 32.6858H120.02V36.0482H115.5V22.6611H121.943C123.179 22.6611 124.258 22.8644 125.181 23.2711C126.103 23.6777 126.807 24.272 127.308 25.0226C127.808 25.789 128.058 26.6804 128.058 27.6969C128.058 28.6509 127.839 29.4954 127.401 30.1992C126.963 30.9186 126.338 31.4816 125.525 31.9039L128.34 36.0326H123.523L121.24 32.6858ZM123.038 26.5553C122.725 26.2738 122.272 26.1487 121.662 26.1487H120.02V29.2921H121.662C122.272 29.2921 122.725 29.1514 123.038 28.8855C123.351 28.604 123.492 28.2287 123.492 27.7282C123.492 27.2278 123.351 26.8211 123.038 26.5553Z" fill="white"/>
<path d="M129.747 22.6611H134.267V36.0482H129.747V22.6611Z" fill="white"/>
<path d="M139.35 26.1643H135.424V22.6611H147.779V26.1643H143.854V36.0482H139.334V26.1643H139.35Z" fill="white"/>
<path d="M156.537 31.1845V36.0482H152.017V31.1219L146.966 22.6455H151.72L154.457 27.2747L157.21 22.6455H161.573L156.537 31.1845Z" fill="white"/>
<path d="M178.432 22.6611V36.0482H173.912V31.1219H169.736V36.0482H165.217V22.6611H169.736V27.3998H173.912V22.6611H178.432Z" fill="white"/>
<path d="M191.741 32.6389V36.0482H180.606V22.6611H191.49V26.0705H185.047V27.6344H190.708V30.8873H185.047V32.6389H191.741Z" fill="white"/>
<path d="M199.216 32.6858H197.996V36.0482H193.477V22.6611H199.92C201.155 22.6611 202.234 22.8644 203.157 23.2711C204.08 23.6777 204.784 24.272 205.284 25.0226C205.784 25.789 206.035 26.6804 206.035 27.6969C206.035 28.6509 205.816 29.4954 205.378 30.1992C204.94 30.9186 204.314 31.4816 203.501 31.9039L206.316 36.0326H201.499L199.216 32.6858ZM201.015 26.5553C200.702 26.2738 200.248 26.1487 199.638 26.1487H197.996V29.2921H199.638C200.248 29.2921 200.702 29.1514 201.015 28.8855C201.327 28.604 201.468 28.2287 201.468 27.7282C201.468 27.2278 201.327 26.8211 201.015 26.5553Z" fill="white"/>
<path d="M210.867 35.454C209.726 34.8597 208.818 34.0308 208.177 32.9517C207.52 31.8882 207.208 30.684 207.208 29.3547C207.208 28.0097 207.536 26.8212 208.177 25.7577C208.834 24.6942 209.726 23.8654 210.867 23.2554C212.009 22.6612 213.307 22.364 214.746 22.364C216.184 22.364 217.483 22.6612 218.624 23.2554C219.766 23.8497 220.673 24.6942 221.314 25.7577C221.971 26.8212 222.284 28.0254 222.284 29.3547C222.284 30.6997 221.955 31.8882 221.314 32.9517C220.657 34.0152 219.766 34.844 218.624 35.454C217.483 36.0482 216.184 36.3454 214.746 36.3454C213.307 36.3454 212.009 36.0482 210.867 35.454ZM216.263 32.2792C216.716 31.9977 217.076 31.6224 217.342 31.1063C217.608 30.6058 217.748 30.0115 217.748 29.3391C217.748 28.6666 217.608 28.0723 217.342 27.5718C217.076 27.0714 216.716 26.6804 216.263 26.3989C215.809 26.1174 215.309 25.9923 214.746 25.9923C214.183 25.9923 213.682 26.133 213.229 26.3989C212.775 26.6804 212.415 27.0558 212.15 27.5718C211.884 28.0723 211.743 28.6666 211.743 29.3391C211.743 30.0115 211.884 30.6058 212.15 31.1063C212.415 31.6067 212.775 31.9977 213.229 32.2792C213.682 32.5607 214.183 32.6858 214.746 32.6858C215.309 32.7015 215.809 32.5607 216.263 32.2792Z" fill="white"/>
<path d="M25.8565 26.9775C24.621 26.3363 23.6514 25.4292 22.9476 24.2719C22.2438 23.1146 21.8998 21.8009 21.8998 20.3309C21.8998 18.8608 22.2438 17.5471 22.9476 16.3898C23.6514 15.2325 24.621 14.3254 25.8565 13.6842C27.092 13.043 28.4838 12.7146 30.0165 12.7146C31.4396 12.7146 32.6908 12.9648 33.8012 13.4653C34.9115 13.9657 35.8342 14.6851 36.5536 15.6391L33.4571 18.4072C32.55 17.2656 31.4866 16.7026 30.2667 16.7026C29.2345 16.7026 28.4057 17.031 27.7957 17.6878C27.1702 18.3447 26.8574 19.2361 26.8574 20.3465C26.8574 21.4569 27.1702 22.3483 27.7957 23.0051C28.4213 23.662 29.2502 23.9904 30.2667 23.9904C31.4866 23.9904 32.55 23.4274 33.4571 22.2857L36.5536 25.0539C35.8342 25.9922 34.9115 26.7116 33.8012 27.2121C32.6908 27.7125 31.424 27.9627 30.0165 27.9627C28.4838 27.9471 27.092 27.6187 25.8565 26.9775Z" fill="white"/>
<path d="M52.4899 13.043V27.6186H47.5792V22.2388H43.0439V27.6186H38.1332V13.043H43.0439V18.2039H47.5792V13.043H52.4899Z" fill="white"/>
<path d="M70.3498 13.0274C70.1152 11.3071 69.1612 9.77445 67.7224 8.82047L56.2746 1.17293C55.1173 0.406617 53.7879 0 52.4117 0H21.9936C20.6174 0 19.2724 0.406617 18.1307 1.17293L6.6829 8.82047C5.2441 9.77445 4.29012 11.3071 4.05553 13.0274C3.82094 14.7477 4.33703 16.4993 5.46305 17.813L32.5813 49.232C33.7386 50.5769 35.4276 51.3589 37.2105 51.3589C38.9777 51.3589 40.6667 50.5926 41.8397 49.232L68.9579 17.813C70.0683 16.4993 70.5844 14.7477 70.3498 13.0274ZM7.57433 13.5122C7.66817 12.8084 8.05915 12.1672 8.65343 11.7763L20.1013 4.12873C20.6643 3.75339 21.3211 3.55008 21.9936 3.55008H52.3961C53.0685 3.55008 53.7254 3.75339 54.2884 4.12873L65.7362 11.7763C66.3305 12.1672 66.7215 12.8084 66.8153 13.5122C66.9092 14.2316 66.7059 14.951 66.2367 15.4827L39.1341 46.9017C38.1645 48.0277 36.2565 48.0277 35.2869 46.9017L8.15298 15.4984C7.68381 14.951 7.4805 14.2316 7.57433 13.5122Z" fill="white"/>
</g>
<defs>
<filter id="filter0_d_273_24" x="0" y="0" width="226.284" height="59.3589" filterUnits="userSpaceOnUse" color-interpolation-filters="sRGB">
<feFlood flood-opacity="0" result="BackgroundImageFix"/>
<feColorMatrix in="SourceAlpha" type="matrix" values="0 0 0 0 0 0 0 0 0 0 0 0 0 0 0 0 0 0 127 0" result="hardAlpha"/>
<feOffset dy="4"/>
<feGaussianBlur stdDeviation="2"/>
<feComposite in2="hardAlpha" operator="out"/>
<feColorMatrix type="matrix" values="0 0 0 0 0 0 0 0 0 0 0 0 0 0 0 0 0 0 0.14 0"/>
<feBlend mode="normal" in2="BackgroundImageFix" result="effect1_dropShadow_273_24"/>
<feBlend mode="normal" in="SourceGraphic" in2="effect1_dropShadow_273_24" result="shape"/>
</filter>
</defs>
</svg>
