<svg width="256" height="59" viewBox="0 0 256 59" fill="none" xmlns="http://www.w3.org/2000/svg">
<g filter="url(#filter0_d_267_13787)">
<path d="M117.472 13.323L118.018 15.0471H121.683L120.903 20.2979H128.078C128.078 20.2979 128.078 20.2979 128.234 27.5863C122.229 27.1161 119.421 21.16 119.421 21.16L100.704 17.2415L102.03 16.2227L109.985 15.8308L108.191 13.323H117.472Z" fill="white"/>
<path d="M148.043 13.323L146.249 15.8308L154.204 16.2227L155.53 17.2415L136.813 21.16C136.813 21.16 134.005 27.0377 128 27.5863C128.156 20.2979 128.156 20.2979 128.156 20.2979H135.331L134.551 15.0471H138.216L138.762 13.323H148.043Z" fill="white"/>
<path d="M128 20.2195C128.156 27.5079 128 20.2195 128.156 27.5079L128 20.2195Z" fill="white"/>
<path d="M128.78 13.3228C130.072 13.3228 131.119 11.5685 131.119 9.40434C131.119 7.24021 130.072 5.48584 128.78 5.48584C127.488 5.48584 126.44 7.24021 126.44 9.40434C126.44 11.5685 127.488 13.3228 128.78 13.3228Z" fill="white"/>
<path d="M107.957 11.5204L86.4327 0V2.58621L97.195 11.5204H107.957Z" fill="white"/>
<path d="M148.823 11.5204L170.347 0V2.58621L159.585 11.5204H148.823Z" fill="white"/>
<path d="M4 11.5203L125.426 9.4043H131.353L252 11.5203L248.335 14.1065H128H6.33962L4 11.5203Z" fill="white"/>
<path d="M49.5447 39.0282C49.5447 43.3385 48.6088 46.2382 46.7371 47.7273C45.0214 49.1379 41.5899 49.7649 36.4428 49.7649H18.6616C17.6478 49.7649 17.1019 49.2947 17.1019 48.4326V28.2131C17.1019 27.3511 17.6478 26.8809 18.6616 26.8809H36.4428C41.434 26.8809 44.7094 27.4294 46.2692 28.4483C47.673 29.3103 48.6088 30.9561 49.0767 33.3072C49.3887 34.7179 49.5447 36.5987 49.5447 39.0282ZM46.4252 38.558C46.4252 34.4044 45.8013 31.7398 44.5535 30.7994C43.5396 30.0157 40.966 29.6238 36.9107 29.6238H20.2214V47.1003H37.2227C41.2 47.1003 43.7736 46.5517 44.8654 45.3762C45.9572 44.3574 46.4252 42.0846 46.4252 38.558Z" fill="white"/>
<path d="M77.4642 41.6144C78.166 42.3981 78.478 43.652 78.478 45.3761V48.9028H75.2805C75.2805 48.5893 75.2805 47.9623 75.2805 47.1003C75.2805 46.3166 75.2805 45.6896 75.2805 45.2977C75.2805 44.2006 75.0465 43.4952 74.5006 43.1818C74.5006 43.1818 73.9547 43.025 73.0189 42.7115C72.551 42.5548 72.239 42.1629 72.239 41.6144C72.239 40.9874 72.7069 40.5172 73.6428 40.2821C74.6566 39.9686 75.2805 39.5767 75.4365 39.1065C75.5145 38.793 75.5925 38.2445 75.5925 37.4608C75.5925 36.3636 75.5145 35.5799 75.2805 35.188C74.8906 34.5611 74.1887 34.0908 73.0969 33.9341C72.239 33.7774 70.8352 33.7774 68.9635 33.7774H57.1094V48.9811H53.912V32.2883C53.912 31.3479 54.4579 30.8777 55.5497 30.8777H68.8076C72.317 30.8777 74.7346 31.1912 76.0604 31.7398C77.9321 32.6018 78.8679 34.4043 78.8679 37.2256C78.8679 39.3416 78.4 40.8307 77.4642 41.6144Z" fill="white"/>
<path d="M95.9472 49.9999C92.0478 49.9999 89.4742 49.9216 88.2264 49.6865C86.3547 49.2946 85.1069 48.5109 84.405 47.1786C83.7032 45.9247 83.3912 43.7303 83.3912 40.5956C83.3912 37.5391 83.7032 35.3448 84.2491 34.0909C84.873 32.7586 86.0428 31.8181 87.8365 31.4263C89.2403 31.1128 91.7359 30.8777 95.4013 30.8777C100.003 30.8777 103.044 30.9561 104.526 31.1912C106.553 31.5046 107.957 31.9749 108.737 32.7586C109.439 33.4639 109.907 34.7178 110.141 36.5203C110.297 37.6175 110.375 38.9498 110.375 40.5956C110.375 43.4952 110.141 45.5329 109.595 46.7868C109.049 48.1191 107.957 49.0595 106.397 49.5297C104.994 49.9216 102.576 50.1567 99.2226 50.1567H95.9472V49.9999ZM95.0113 33.6206C92.5937 33.6206 90.722 33.699 89.2403 33.9341C88.1484 34.0908 87.4465 34.5611 87.0566 35.3448C86.7447 36.1285 86.5107 37.7742 86.5107 40.2821C86.5107 42.6332 86.5887 44.1222 86.7447 44.8275C86.9006 45.6896 87.2906 46.2382 87.8365 46.5517C88.3044 46.7868 89.0063 46.9435 90.0981 47.0219C91.5019 47.1786 93.2956 47.1786 95.4793 47.1786H99.9245C101.64 47.1786 103.044 47.1003 104.058 46.9435C104.916 46.7868 105.54 46.5517 105.852 46.3166C106.164 46.0031 106.475 45.5329 106.631 44.7492C106.865 43.8871 106.943 42.3981 106.943 40.4388C106.943 38.8714 106.865 37.6175 106.787 36.6771C106.631 35.6582 106.397 34.9529 106.086 34.5611C105.774 34.1692 104.994 33.9341 103.902 33.7774C102.654 33.699 99.6906 33.6206 95.0113 33.6206Z" fill="white"/>
<path d="M133.537 45.0626L120.279 33.699H118.408V48.9028H115.21V32.2883C115.21 31.3479 115.756 30.8777 116.848 30.8777H121.059C121.527 30.8777 121.917 31.0344 122.229 31.2695L135.799 43.1034L133.537 45.0626ZM139.074 48.9028V30.8777H142.272V48.8244H139.074V48.9028Z" fill="white"/>
<path d="M147.731 48.9028C146.639 48.9028 146.093 48.4325 146.093 47.4921V32.2883C146.093 31.3479 146.639 30.8777 147.731 30.8777H166.604V33.699H149.291V46.0814H166.604V48.8244H147.731V48.9028ZM162.626 40.5956V37.8526H165.98V40.5956H162.626Z" fill="white"/>
<path d="M202.556 38.8715C202.556 40.5172 202.478 41.7711 202.4 42.6332C201.932 46.0031 199.748 47.884 195.771 48.3542C193.977 48.5893 191.872 48.6677 189.454 48.6677C190.39 48.6677 188.284 48.6677 183.137 48.6677C179.706 48.6677 177.21 48.3542 175.65 47.8056C173.389 46.9436 172.063 45.2194 171.673 42.6332C171.517 41.7711 171.517 40.5956 171.517 39.0282V27.0376H174.636V40.2821C174.636 41.6928 174.792 42.7116 175.104 43.4953C175.572 44.5925 176.43 45.2978 177.678 45.5329C178.926 45.8464 180.564 46.0031 182.591 46.0031C181.109 46.0031 182.825 46.0031 187.582 46.0031C193.353 46.0031 196.707 45.6896 197.799 45.0627C198.969 44.3573 199.592 42.5548 199.592 39.6552C199.592 39.3417 199.592 38.9498 199.592 38.4012C199.592 37.8526 199.592 37.5392 199.592 37.3824V27.0376H202.712L202.556 38.8715Z" fill="white"/>
<path d="M237.962 47.9624L235.311 49.2947L222.365 29.7022H219.167L206.221 49.2947L203.57 47.9624L216.906 27.5862C217.218 27.116 217.686 26.8809 218.231 26.8809H223.301C223.925 26.8809 224.314 27.116 224.626 27.5862L237.962 47.9624ZM222.677 38.1661H219.401V35.5015H222.677V38.1661Z" fill="white"/>
</g>
<defs>
<filter id="filter0_d_267_13787" x="0" y="0" width="256" height="58.1567" filterUnits="userSpaceOnUse" color-interpolation-filters="sRGB">
<feFlood flood-opacity="0" result="BackgroundImageFix"/>
<feColorMatrix in="SourceAlpha" type="matrix" values="0 0 0 0 0 0 0 0 0 0 0 0 0 0 0 0 0 0 127 0" result="hardAlpha"/>
<feOffset dy="4"/>
<feGaussianBlur stdDeviation="2"/>
<feComposite in2="hardAlpha" operator="out"/>
<feColorMatrix type="matrix" values="0 0 0 0 0 0 0 0 0 0 0 0 0 0 0 0 0 0 0.14 0"/>
<feBlend mode="normal" in2="BackgroundImageFix" result="effect1_dropShadow_267_13787"/>
<feBlend mode="normal" in="SourceGraphic" in2="effect1_dropShadow_267_13787" result="shape"/>
</filter>
</defs>
</svg>
