<svg width="82" height="103" viewBox="0 0 82 103" fill="none" xmlns="http://www.w3.org/2000/svg">
<g filter="url(#filter0_d_264_91)">
<path d="M4.11858 77.6949H5.6293L8.08566 81.5122L10.542 77.6949H12.0527V85.7676H10.6458V79.9784L8.09719 83.7839H8.05089L5.52551 80.0015V85.7676H4.11858V77.6949Z" fill="white"/>
<path d="M19.4217 82.5618L18.0262 79.3326L16.6425 82.5618H19.4217ZM17.3921 77.6374H18.7067L22.2587 85.7676H20.7595L19.9407 83.8186H16.1235L15.2932 85.7676H13.8401L17.3921 77.6374Z" fill="white"/>
<path d="M27.6443 85.9058C27.0137 85.9058 26.4408 85.8001 25.926 85.5888C25.4107 85.3775 24.9705 85.0853 24.6055 84.7123C24.2402 84.3394 23.9577 83.9012 23.7579 83.3977C23.5578 82.8942 23.4579 82.3464 23.4579 81.7543V81.7313C23.4579 81.1701 23.5605 80.6357 23.766 80.1283C23.9712 79.6207 24.2595 79.1767 24.6308 78.7961C25.002 78.4156 25.4433 78.1142 25.9548 77.8909C26.4659 77.668 27.0252 77.5566 27.6327 77.5566C27.9863 77.5566 28.3074 77.5815 28.5955 77.6316C28.884 77.6816 29.1511 77.7526 29.3972 77.8449C29.6431 77.9372 29.8756 78.0506 30.0949 78.1851C30.314 78.3196 30.5273 78.4753 30.7349 78.6522L29.8354 79.7247C29.6816 79.5939 29.524 79.4749 29.3626 79.367C29.2011 79.2596 29.0319 79.1691 28.8551 79.0962C28.6783 79.0231 28.4841 78.9654 28.2728 78.923C28.0611 78.8809 27.8288 78.8597 27.5751 78.8597C27.206 78.8597 26.8619 78.9367 26.5429 79.0909C26.2238 79.2451 25.947 79.4509 25.7124 79.7091C25.4781 79.967 25.2935 80.2696 25.1591 80.6164C25.0244 80.9628 24.9571 81.3287 24.9571 81.714V81.7369C24.9571 82.153 25.0222 82.5384 25.1528 82.8925C25.2832 83.2469 25.4691 83.5513 25.7107 83.8054C25.9521 84.0596 26.2399 84.26 26.5736 84.4062C26.907 84.5526 27.2808 84.6259 27.6953 84.6259C28.0787 84.6259 28.4371 84.5697 28.7708 84.4576C29.1043 84.3457 29.3938 84.197 29.6393 84.0114V82.4924H27.5751V81.2584H31.0115V84.6487C30.8117 84.818 30.5907 84.9795 30.3484 85.1331C30.1064 85.2871 29.8449 85.4216 29.5642 85.5367C29.2835 85.6521 28.982 85.7426 28.6589 85.8077C28.3362 85.873 27.9977 85.9058 27.6443 85.9058Z" fill="white"/>
<path d="M33.8138 77.6949H35.1258L39.4415 83.2764V77.6949H40.8483V85.7676H39.6629L35.2207 80.0244V85.7676H33.8138V77.6949Z" fill="white"/>
<path d="M43.8815 77.6949H49.8552V78.9751H45.2884V81.0509H49.3362V82.3308H45.2884V84.4875H49.9127V85.7676H43.8815V77.6949Z" fill="white"/>
<path d="M54.7448 79.0095H52.1845V77.6949H58.7348V79.0095H56.1748V85.7676H54.7448V79.0095Z" fill="white"/>
<path d="M63.1747 79.0095H60.6144V77.6949H67.1647V79.0095H64.6047V85.7676H63.1747V79.0095Z" fill="white"/>
<path d="M73.0577 84.6026C73.4559 84.6026 73.8214 84.5278 74.1544 84.3777C74.4874 84.2278 74.7724 84.0243 75.0099 83.7665C75.247 83.5091 75.4327 83.2071 75.5668 82.8613C75.7008 82.5153 75.7678 82.1463 75.7678 81.7542V81.7311C75.7678 81.339 75.7008 80.9681 75.5668 80.6182C75.4327 80.2684 75.2449 79.9648 75.0041 79.7074C74.7629 79.4496 74.474 79.244 74.137 79.0902C73.8002 78.9366 73.4327 78.8597 73.0346 78.8597C72.6364 78.8597 72.271 78.9345 71.9379 79.0846C71.6051 79.2344 71.3197 79.4382 71.0826 79.6957C70.8452 79.9534 70.6595 80.255 70.5255 80.6009C70.3914 80.9469 70.3246 81.3159 70.3246 81.708V81.7311C70.3246 82.1234 70.3914 82.4943 70.5255 82.8441C70.6595 83.1938 70.8472 83.4976 71.0882 83.755C71.3294 84.0126 71.6184 84.2183 71.9554 84.3721C72.292 84.5258 72.6595 84.6026 73.0577 84.6026ZM73.0346 85.9058C72.4119 85.9058 71.8429 85.7962 71.3279 85.5771C70.8128 85.358 70.3707 85.06 70.0017 84.6835C69.6328 84.3069 69.3443 83.8666 69.1367 83.3627C68.9292 82.8596 68.8254 82.3233 68.8254 81.7542V81.7311C68.8254 81.1623 68.9292 80.626 69.1367 80.1224C69.3443 79.6188 69.6364 79.1767 70.0132 78.7961C70.3899 78.4156 70.8357 78.114 71.3511 77.8909C71.866 77.6679 72.435 77.5564 73.0577 77.5564C73.6804 77.5564 74.2492 77.666 74.7645 77.8853C75.2795 78.1042 75.7216 78.4022 76.0907 78.7788C76.4599 79.1557 76.748 79.5959 76.9556 80.0993C77.1632 80.603 77.267 81.1392 77.267 81.708V81.7311C77.267 82.3002 77.1632 82.8365 76.9556 83.34C76.748 83.8434 76.4558 84.2857 76.0791 84.666C75.7025 85.0466 75.2565 85.3485 74.7416 85.5715C74.2264 85.7942 73.6574 85.9058 73.0346 85.9058Z" fill="white"/>
<path d="M6.00867 91.9956C6.17793 91.9956 6.33468 91.9745 6.47894 91.932C6.6232 91.8894 6.74726 91.8289 6.85112 91.7498C6.95498 91.6706 7.03673 91.574 7.09636 91.4601C7.15598 91.3463 7.18579 91.2161 7.18579 91.0695V91.0578C7.18579 90.7839 7.08501 90.5679 6.88286 90.4096C6.6809 90.2515 6.39527 90.1724 6.02598 90.1724H4.64689V91.9956H6.00867ZM4.34684 89.901H6.04348C6.29333 89.901 6.51452 89.9366 6.70686 90.0078C6.89921 90.0789 7.05693 90.1761 7.18002 90.2992C7.27619 90.3955 7.35102 90.5079 7.40506 90.6367C7.45892 90.7654 7.48604 90.9029 7.48604 91.0493V91.0608C7.48604 91.2303 7.45603 91.3811 7.39641 91.5138C7.33678 91.6465 7.25408 91.761 7.14829 91.8571C7.0425 91.9533 6.91767 92.0312 6.77341 92.0908C6.62916 92.1506 6.47221 92.192 6.30295 92.2149L7.63587 93.9402H7.25504L5.96827 92.2666H5.95673H4.64689V93.9402H4.34684V89.901Z" fill="white"/>
<path d="M8.95144 89.9013H11.8248V90.1725H9.25149V91.7708H11.5654V92.0418H9.25149V93.6692H11.8539V93.9404H8.95144V89.9013Z" fill="white"/>
<path d="M14.3697 90.1725H12.9618V89.9013H16.0777V90.1725H14.6697V93.9404H14.3697V90.1725Z" fill="white"/>
<path d="M20.157 92.5378L19.0953 90.2011L18.0278 92.5378H20.157ZM18.9568 89.8722H19.2453L21.1264 93.9402H20.7975L20.284 92.809H17.901L17.3875 93.9402H17.0757L18.9568 89.8722Z" fill="white"/>
<path d="M22.4537 89.9014H22.7537V93.9405H22.4537V89.9014Z" fill="white"/>
<path d="M24.427 89.9013H24.7271V93.6692H27.0987V93.9404H24.427V89.9013Z" fill="white"/>
<path d="M31.7148 90.1725H30.3069V89.9013H33.4228V90.1725H32.0148V93.9404H31.7148V90.1725Z" fill="white"/>
<path d="M34.7671 89.9013H37.6405V90.1725H35.0671V91.7708H37.381V92.0418H35.0671V93.6692H37.6695V93.9404H34.7671V89.9013Z" fill="white"/>
<path d="M40.895 94.0095C40.6064 94.0095 40.3389 93.9557 40.0929 93.848C39.8467 93.7404 39.6342 93.5933 39.4553 93.4065C39.2764 93.2202 39.137 92.9997 39.0369 92.7458C38.9367 92.4919 38.8871 92.2207 38.8871 91.9322V91.9209C38.8871 91.636 38.9379 91.3668 39.0398 91.1127C39.1418 90.859 39.2822 90.6368 39.461 90.4464C39.6401 90.256 39.8525 90.106 40.0987 89.9963C40.3449 89.8865 40.6141 89.8319 40.9067 89.8319C41.0873 89.8319 41.2508 89.8473 41.397 89.878C41.5431 89.909 41.6787 89.953 41.804 90.0107C41.9288 90.0684 42.0461 90.1367 42.1557 90.2156C42.2654 90.2946 42.3721 90.3822 42.476 90.4783L42.2625 90.6974C42.1738 90.6128 42.0817 90.5339 41.9855 90.461C41.8894 90.3877 41.7865 90.3254 41.6768 90.2733C41.5672 90.2214 41.4479 90.18 41.3191 90.1492C41.1902 90.1186 41.0509 90.1029 40.9007 90.1029C40.6586 90.1029 40.4335 90.1492 40.2258 90.2416C40.0179 90.3341 39.838 90.4618 39.6861 90.6253C39.5341 90.789 39.4149 90.9801 39.3283 91.1996C39.2418 91.4187 39.1985 91.6553 39.1985 91.9092V91.9209C39.1985 92.1746 39.2427 92.4121 39.3312 92.6335C39.4197 92.8547 39.5399 93.0469 39.6919 93.2105C39.8438 93.3738 40.0236 93.5027 40.2314 93.5969C40.4391 93.6914 40.6641 93.7383 40.9067 93.7383C41.1989 93.7383 41.4525 93.6847 41.6684 93.5768C41.8836 93.469 42.093 93.3134 42.2971 93.1094L42.4991 93.3056C42.3914 93.4096 42.2808 93.5046 42.1673 93.5912C42.0538 93.6777 41.9326 93.7518 41.804 93.8133C41.6749 93.8751 41.5354 93.9232 41.3854 93.9576C41.2356 93.9922 41.0719 94.0095 40.895 94.0095Z" fill="white"/>
<path d="M43.757 89.9013H44.057V91.7766H46.6421V89.9013H46.9421V93.9404H46.6421V92.0478H44.057V93.9404H43.757V89.9013Z" fill="white"/>
<path d="M48.5751 89.9013H48.8578L51.6448 93.4153V89.9013H51.9334V93.9404H51.7083L48.8636 90.3513V93.9404H48.5751V89.9013Z" fill="white"/>
<path d="M55.4244 93.7383C55.6745 93.7383 55.9041 93.6914 56.114 93.5971C56.3236 93.5027 56.5042 93.3738 56.6562 93.2105C56.8081 93.0469 56.9266 92.8555 57.0112 92.6364C57.0957 92.4171 57.1382 92.1823 57.1382 91.9322V91.9209C57.1382 91.6707 57.0949 91.435 57.0082 91.2138C56.9218 90.9928 56.8025 90.8005 56.6506 90.6368C56.4985 90.4733 56.3169 90.3437 56.1053 90.2473C55.8935 90.1513 55.6627 90.1031 55.4127 90.1031C55.1628 90.1031 54.9328 90.1504 54.7231 90.2446C54.5137 90.3389 54.3327 90.4677 54.1809 90.6312C54.0288 90.7945 53.9107 90.9859 53.8259 91.2052C53.7414 91.4246 53.6989 91.6591 53.6989 91.9092V91.9209C53.6989 92.1709 53.7424 92.4065 53.829 92.6275C53.9153 92.8487 54.0346 93.0411 54.1865 93.2046C54.3385 93.3683 54.5204 93.4979 54.7318 93.5941C54.9434 93.6902 55.1742 93.7383 55.4244 93.7383ZM55.4127 94.0095C55.1051 94.0095 54.8272 93.9528 54.5789 93.8393C54.3308 93.726 54.1182 93.5741 53.9415 93.3835C53.7643 93.1932 53.6278 92.973 53.5318 92.723C53.4354 92.4727 53.3875 92.2094 53.3875 91.9322V91.9209C53.3875 91.6437 53.4366 91.3793 53.5347 91.1275C53.6328 90.8753 53.7701 90.6534 53.947 90.461C54.124 90.2687 54.3377 90.1158 54.5875 90.0021C54.8376 89.8888 55.1165 89.8319 55.4244 89.8319C55.7281 89.8319 56.0053 89.8888 56.2551 90.0021C56.5052 90.1158 56.7187 90.2675 56.8956 90.4579C57.0726 90.6485 57.2092 90.8686 57.3053 91.1188C57.4015 91.3689 57.4496 91.6324 57.4496 91.9092C57.4536 91.913 57.4536 91.917 57.4496 91.9209C57.4496 92.1977 57.4005 92.4621 57.3026 92.7143C57.2045 92.9661 57.0668 93.1884 56.8901 93.3808C56.7129 93.5731 56.4985 93.726 56.2465 93.8393C55.9947 93.9528 55.7168 94.0095 55.4127 94.0095Z" fill="white"/>
<path d="M58.9038 89.9013H59.2039V93.6692H61.5755V93.9404H58.9038V89.9013Z" fill="white"/>
<path d="M64.7663 93.7383C65.0164 93.7383 65.246 93.6914 65.4559 93.5971C65.6655 93.5027 65.8461 93.3738 65.9981 93.2105C66.15 93.0469 66.2685 92.8555 66.3531 92.6364C66.4376 92.4171 66.4801 92.1823 66.4801 91.9322V91.9209C66.4801 91.6707 66.4368 91.435 66.3501 91.2138C66.2637 90.9928 66.1444 90.8005 65.9925 90.6368C65.8404 90.4733 65.6588 90.3437 65.4472 90.2473C65.2354 90.1513 65.0046 90.1031 64.7546 90.1031C64.5047 90.1031 64.2747 90.1504 64.065 90.2446C63.8556 90.3389 63.6746 90.4677 63.5228 90.6312C63.3707 90.7945 63.2526 90.9859 63.1678 91.2052C63.0833 91.4246 63.0408 91.6591 63.0408 91.9092V91.9209C63.0408 92.1709 63.0843 92.4065 63.1708 92.6275C63.2572 92.8487 63.3765 93.0411 63.5284 93.2046C63.6804 93.3683 63.8623 93.4979 64.0737 93.5941C64.2853 93.6902 64.5161 93.7383 64.7663 93.7383ZM64.7546 94.0095C64.447 94.0095 64.1691 93.9528 63.9208 93.8393C63.6727 93.726 63.4601 93.5741 63.2834 93.3835C63.1062 93.1932 62.9697 92.973 62.8737 92.723C62.7773 92.4727 62.7294 92.2094 62.7294 91.9322V91.9209C62.7294 91.6437 62.7785 91.3793 62.8766 91.1275C62.9747 90.8753 63.112 90.6534 63.2889 90.461C63.4659 90.2687 63.6796 90.1158 63.9294 90.0021C64.1795 89.8888 64.4584 89.8319 64.7663 89.8319C65.07 89.8319 65.3472 89.8888 65.597 90.0021C65.8471 90.1158 66.0606 90.2675 66.2375 90.4579C66.4145 90.6485 66.5511 90.8686 66.6472 91.1188C66.7434 91.3689 66.7915 91.6324 66.7915 91.9092C66.7955 91.913 66.7955 91.917 66.7915 91.9209C66.7915 92.1977 66.7424 92.4621 66.6445 92.7143C66.5464 92.9661 66.4087 93.1884 66.232 93.3808C66.0548 93.5731 65.8404 93.726 65.5884 93.8393C65.3366 93.9528 65.0587 94.0095 64.7546 94.0095Z" fill="white"/>
<path d="M70.098 94.0095C69.7787 94.0095 69.4929 93.9547 69.2411 93.8451C68.9889 93.7354 68.7766 93.5866 68.6035 93.3979C68.4304 93.2094 68.2977 92.9892 68.2053 92.7372C68.113 92.4854 68.0668 92.2171 68.0668 91.9322V91.9209C68.0668 91.6478 68.114 91.385 68.2082 91.1331C68.3025 90.8811 68.4369 90.6589 68.6121 90.4666C68.7872 90.2743 68.9978 90.1204 69.244 90.005C69.4902 89.8896 69.7633 89.8319 70.0633 89.8319C70.2288 89.8319 70.3797 89.8434 70.5163 89.8665C70.6529 89.8896 70.7798 89.9242 70.8971 89.9704C71.0145 90.0165 71.126 90.0723 71.2318 90.1377C71.3376 90.2033 71.4403 90.2783 71.5405 90.3627L71.3443 90.5878C71.1866 90.4493 71.0068 90.3341 70.8048 90.2416C70.6029 90.1492 70.3499 90.1029 70.046 90.1029C69.7998 90.1029 69.5748 90.151 69.3709 90.2471C69.167 90.3431 68.991 90.4737 68.8429 90.6391C68.6948 90.804 68.5804 90.9961 68.4996 91.215C68.4188 91.4339 68.3784 91.6645 68.3784 91.9061V91.9178C68.3784 92.1788 68.4179 92.421 68.4967 92.6435C68.5756 92.8664 68.69 93.0586 68.8401 93.22C68.9901 93.3811 69.1718 93.5081 69.3853 93.6C69.5988 93.6924 69.8402 93.7383 70.1095 93.7383C70.2365 93.7383 70.3615 93.7258 70.4846 93.701C70.6075 93.6762 70.724 93.6425 70.8337 93.6004C70.9433 93.5583 71.0462 93.5092 71.1424 93.4538C71.2385 93.3983 71.3232 93.3398 71.3963 93.2784V92.1225H70.046V91.8515H71.6848V93.4052C71.5001 93.5666 71.2722 93.7075 71.001 93.8285C70.7298 93.9491 70.4288 94.0095 70.098 94.0095Z" fill="white"/>
<path d="M74.5179 92.3419L72.7868 89.9013H73.1619L74.6737 92.0707L76.1912 89.9013H76.549L74.8179 92.3363V93.9404H74.5179V92.3419Z" fill="white"/>
<path d="M40.1768 21.6023L74.4317 0.192955C75.2683 -0.329849 76.3536 0.271591 76.3536 1.25816V71.3455L62.4358 66.1262C59.9271 65.1856 58.2652 62.7874 58.2652 60.108V37.4297L40.1768 48.735L22.0884 37.4297V60.108C22.0884 62.7874 20.4265 65.1856 17.9178 66.1262L4 71.3455V1.25816C4 0.271591 5.0853 -0.329849 5.92189 0.192955L40.1768 21.6023Z" fill="white"/>
<path d="M76.3536 49.2764V71.3452L62.4358 66.126C59.9271 65.1854 58.2652 62.7871 58.2652 60.1078V60.04L76.3536 48.7347V49.2764Z" fill="white"/>
<path d="M76.3536 26.1244V48.7349L58.2652 37.4296L76.3536 26.1244Z" fill="white"/>
<path d="M58.2652 60.04V37.4295L76.3536 48.7348L58.2652 60.04Z" fill="white"/>
<path d="M4 26.1244V48.7349L22.0884 37.4296L4 26.1244Z" fill="white"/>
<path d="M22.0884 60.04V37.4295L4 48.7348L22.0884 60.04Z" fill="white"/>
<path d="M4 49.2764V71.3452L17.9178 66.126C20.4265 65.1854 22.0884 62.7871 22.0884 60.1078V60.04L4 48.7347V49.2764Z" fill="white"/>
<g opacity="0.350006">
<g opacity="0.350006">
<path opacity="0.350006" d="M4 26.1244L22.0884 41.9658V37.4297L4 26.1244Z" fill="black"/>
</g>
</g>
<g opacity="0.350006">
<g opacity="0.350006">
<path opacity="0.350006" d="M76.3536 26.1244L58.2652 41.9658V37.4297L76.3536 26.1244Z" fill="black"/>
</g>
</g>
</g>
<defs>
<filter id="filter0_d_264_91" x="0" y="0" width="81.267" height="102.01" filterUnits="userSpaceOnUse" color-interpolation-filters="sRGB">
<feFlood flood-opacity="0" result="BackgroundImageFix"/>
<feColorMatrix in="SourceAlpha" type="matrix" values="0 0 0 0 0 0 0 0 0 0 0 0 0 0 0 0 0 0 127 0" result="hardAlpha"/>
<feOffset dy="4"/>
<feGaussianBlur stdDeviation="2"/>
<feComposite in2="hardAlpha" operator="out"/>
<feColorMatrix type="matrix" values="0 0 0 0 0 0 0 0 0 0 0 0 0 0 0 0 0 0 0.14 0"/>
<feBlend mode="normal" in2="BackgroundImageFix" result="effect1_dropShadow_264_91"/>
<feBlend mode="normal" in="SourceGraphic" in2="effect1_dropShadow_264_91" result="shape"/>
</filter>
</defs>
</svg>
