<svg width="165" height="57" viewBox="0 0 165 57" fill="none" xmlns="http://www.w3.org/2000/svg">
<g filter="url(#filter0_d_264_68)">
<path d="M48.0781 22.9889C45.9246 24.3016 43.4584 25.0466 40.7839 25.0466C32.8991 25.0466 26.4732 18.5189 26.4732 10.4302C26.4732 7.69846 27.2027 5.14414 28.4878 2.98006C27.7584 2.94458 27.029 2.94458 26.2648 2.94458C22.5482 2.94458 18.8316 3.3703 15.5319 4.18627C10.1827 5.42795 6.46615 9.18848 5.25044 14.6164C4.41681 18.377 4 21.7118 4 25.4723C4 28.8071 4.41681 32.5676 5.25044 36.3282C6.08407 41.3304 10.1827 45.5166 15.1498 46.7583C22.1662 48.4257 29.5993 48.4257 36.581 46.7583C41.9301 45.5166 45.6467 41.7561 46.8971 36.3282C47.7308 32.5676 48.1476 29.2328 48.1476 25.4723C48.1476 24.6209 48.1128 23.8049 48.0781 22.9889Z" fill="white"/>
<path d="M40.7838 20.8603C46.4237 20.8603 50.9958 16.1906 50.9958 10.4302C50.9958 4.66974 46.4237 0 40.7838 0C35.1439 0 30.5719 4.66974 30.5719 10.4302C30.5719 16.1906 35.1439 20.8603 40.7838 20.8603Z" fill="white"/>
<path d="M68.6757 39.5921V13.1265H77.0119C79.4086 13.1265 81.1454 13.3748 82.2221 13.8715C83.542 14.5101 84.5841 15.4325 85.3135 16.6741C86.0429 17.9158 86.4597 19.4058 86.4597 21.1087C86.4597 22.7052 86.0429 24.1952 85.244 25.5433C84.4799 26.856 83.4031 27.7783 82.0832 28.346V28.4169C82.3263 28.6653 82.6042 29.091 82.9516 29.7296L88.2659 39.5921H83.021L77.8803 29.7296H73.3648V39.5921H68.6757ZM73.3648 25.5433H77.6024C78.8529 25.5433 79.8602 25.1885 80.5896 24.479C81.319 23.734 81.6664 22.7052 81.6664 21.3925C81.6664 20.0089 81.319 19.0156 80.6243 18.3415C79.9297 17.632 78.6792 17.3127 76.9425 17.3127H73.3648V25.5433Z" fill="white"/>
<path d="M90.4542 30.0842C90.4542 27.1396 91.3226 24.7627 93.094 22.9179C94.8655 21.0731 97.158 20.1152 99.902 20.1152C102.507 20.1152 104.522 20.9667 105.946 22.6696C107.405 24.3724 108.134 26.501 108.134 29.1263L108.03 30.9356H95.1781C95.317 32.5321 95.9075 33.7738 96.9496 34.6607C98.0263 35.5121 99.2768 35.9733 100.736 35.9733C101.604 35.9733 102.507 35.7959 103.41 35.4412C104.313 35.0864 104.973 34.7316 105.46 34.4124L106.119 33.8802L107.891 37.286C107.821 37.3569 107.717 37.4634 107.578 37.5698C107.439 37.7117 107.092 37.9245 106.606 38.2438C106.119 38.5277 105.598 38.8115 105.077 39.0598C104.556 39.2727 103.862 39.4855 102.993 39.6984C102.16 39.9112 101.326 39.9822 100.423 39.9822C97.4358 39.9822 95.0044 39.0243 93.1635 37.1086C91.3573 35.2283 90.4542 32.8869 90.4542 30.0842ZM95.317 27.7427H103.445C103.41 26.501 103.063 25.5432 102.368 24.8336C101.673 24.1241 100.84 23.8048 99.7631 23.8048C98.5821 23.8048 97.5748 24.1596 96.8106 24.8336C96.0465 25.5432 95.5602 26.501 95.317 27.7427Z" fill="white"/>
<path d="M111.955 47.0422V20.5765H116.192V21.9601L116.123 23.2728H116.192C116.227 23.2018 116.297 23.0954 116.366 22.9535C116.47 22.8116 116.679 22.5632 117.026 22.2085C117.373 21.8537 117.756 21.4989 118.172 21.2506C118.589 21.0022 119.145 20.7184 119.84 20.5056C120.569 20.2927 121.333 20.1863 122.167 20.1863C124.668 20.1863 126.648 21.1087 128.141 22.9535C129.635 24.7983 130.399 27.1752 130.399 30.1552C130.399 33.1353 129.6 35.5477 128.002 37.3925C126.439 39.2018 124.39 40.1242 121.924 40.1242C121.229 40.1242 120.569 40.0532 119.944 39.8759C119.319 39.6985 118.832 39.4856 118.45 39.2373C118.068 38.9535 117.721 38.7051 117.408 38.4568C117.13 38.173 116.922 37.9601 116.783 37.7827L116.609 37.5344H116.54C116.575 37.9956 116.609 38.5277 116.609 39.1663V47.1486H111.955V47.0422ZM116.436 30.1907C116.436 31.7872 116.852 33.1708 117.651 34.3415C118.485 35.4767 119.631 36.0444 121.09 36.0444C122.41 36.0444 123.521 35.5122 124.425 34.4834C125.328 33.4191 125.779 31.9645 125.779 30.1552C125.779 28.3814 125.362 26.9269 124.494 25.8271C123.626 24.7273 122.514 24.1951 121.125 24.1951C119.805 24.1951 118.693 24.6918 117.79 25.7206C116.887 26.714 116.436 28.204 116.436 30.1907Z" fill="white"/>
<path d="M133.977 33.6675V13.1265H138.561V32.958C138.561 33.9513 138.7 34.6254 139.013 35.0156C139.326 35.4058 139.812 35.5832 140.472 35.5832L141.167 35.5477V39.6985C140.715 39.7695 140.229 39.805 139.708 39.805C138.944 39.805 138.284 39.734 137.693 39.6276C137.103 39.4857 136.512 39.2019 135.922 38.8471C135.296 38.4568 134.845 37.8183 134.498 36.9313C134.15 36.0444 133.977 34.9446 133.977 33.6675Z" fill="white"/>
<path d="M142.104 46.1906L143.633 42.6429C144.327 43.1751 145.022 43.4234 145.717 43.4234C147.176 43.4234 148.252 42.6075 148.912 40.9755L149.607 39.3081L141.757 20.5764H146.967L150.858 31.5387L151.552 34.093H151.622C151.83 33.0997 152.038 32.2837 152.247 31.6097L155.929 20.5764H161L152.664 42.4655C152.038 44.133 151.135 45.3746 149.92 46.1906C148.739 47.0066 147.419 47.4323 145.96 47.4323C145.3 47.4323 144.64 47.3259 143.98 47.1485C143.355 46.9356 142.869 46.7582 142.556 46.5454L142.104 46.1906Z" fill="white"/>
</g>
<defs>
<filter id="filter0_d_264_68" x="0" y="0" width="165" height="56.0088" filterUnits="userSpaceOnUse" color-interpolation-filters="sRGB">
<feFlood flood-opacity="0" result="BackgroundImageFix"/>
<feColorMatrix in="SourceAlpha" type="matrix" values="0 0 0 0 0 0 0 0 0 0 0 0 0 0 0 0 0 0 127 0" result="hardAlpha"/>
<feOffset dy="4"/>
<feGaussianBlur stdDeviation="2"/>
<feComposite in2="hardAlpha" operator="out"/>
<feColorMatrix type="matrix" values="0 0 0 0 0 0 0 0 0 0 0 0 0 0 0 0 0 0 0.14 0"/>
<feBlend mode="normal" in2="BackgroundImageFix" result="effect1_dropShadow_264_68"/>
<feBlend mode="normal" in="SourceGraphic" in2="effect1_dropShadow_264_68" result="shape"/>
</filter>
</defs>
</svg>
