<svg width="213" height="43" viewBox="0 0 213 43" fill="none" xmlns="http://www.w3.org/2000/svg">
<g filter="url(#filter0_d_258_54)">
<path fill-rule="evenodd" clip-rule="evenodd" d="M61.1766 12.7325C62.5278 11.2678 64.1721 10.4343 66.3931 10.4343H67.3695V15.749C62.0754 15.749 61.1766 15.8273 61.1766 17.7976V24.4344H56.0368V10.4343H61.1766V12.7325ZM99.9023 10.1692C104.091 10.1692 107.355 12.4772 107.355 17.4288C107.355 22.3805 104.091 24.6882 99.9023 24.6882C97.316 24.6882 95.6062 23.429 94.6859 22.2566V24.4288H89.5466V7.29175H94.6859V12.6013C95.6062 11.4288 97.316 10.1692 99.9023 10.1692ZM98.4379 20.099C100.519 20.099 101.933 19.1658 101.933 17.4288C101.933 15.6919 100.519 14.7588 98.4379 14.7588C96.1252 14.7588 94.6859 15.6919 94.6859 17.4288C94.6859 19.1658 96.1252 20.099 98.4379 20.099ZM117.994 9.96204C122.98 9.96204 127.04 12.269 127.04 17.4284C127.04 22.6399 122.98 24.7917 117.994 24.7917C113.008 24.7917 108.948 22.6399 108.948 17.4284C108.948 12.269 113.008 9.96204 117.994 9.96204ZM117.994 20.2032C120.076 20.2032 121.489 19.2181 121.489 17.4285C121.489 15.6392 120.076 14.6542 117.994 14.6542C115.681 14.6542 114.243 15.6392 114.243 17.4285C114.243 19.2181 115.681 20.2032 117.994 20.2032ZM78.2589 9.96204C83.2446 9.96204 87.3042 12.269 87.3042 17.4284C87.3042 22.6399 83.2446 24.7917 78.2589 24.7917C73.2728 24.7917 69.213 22.6399 69.213 17.4284C69.213 12.269 73.2728 9.96204 78.2589 9.96204ZM78.2589 20.2032C80.3402 20.2032 81.7538 19.2181 81.7538 17.4285C81.7538 15.6392 80.3402 14.6542 78.2589 14.6542C75.9456 14.6542 74.5071 15.6392 74.5071 17.4285C74.5071 19.2181 75.9456 20.2032 78.2589 20.2032ZM136.188 7.31739V10.4286H141.07V15.0953H136.188V18.2068C136.188 19.8656 138.552 19.5551 141.07 19.4248V24.4292C139.349 24.6878 137.576 24.6878 137.268 24.6878C134.26 24.6878 131.048 23.3396 131.048 18.9841V15.0953H128.222V10.4286H131.048V7.31739H136.188ZM155.744 12.6012V10.4286H160.883V24.4288H155.744V22.2565C154.824 23.4286 153.114 24.6882 150.527 24.6882C146.338 24.6882 143.074 22.3805 143.074 17.4288C143.074 12.4772 146.338 10.1692 150.527 10.1692C153.114 10.1692 154.824 11.4288 155.744 12.6012ZM151.992 20.099C154.304 20.099 155.744 19.1658 155.744 17.4288C155.744 15.6919 154.304 14.7588 151.992 14.7588C149.911 14.7588 148.496 15.6919 148.496 17.4288C148.496 19.1658 149.911 20.099 151.992 20.099ZM203.079 10.4542H208.218V24.4545H203.079V22.2824C202.159 23.4546 200.449 24.7138 197.862 24.7138C193.674 24.7138 190.41 22.4066 190.41 17.4545C190.41 12.5028 193.674 10.1948 197.862 10.1948C200.449 10.1948 202.159 11.4544 203.079 12.6269V10.4542ZM199.327 20.1253C201.641 20.1253 203.079 19.1914 203.079 17.4545C203.079 15.7178 201.641 14.7844 199.327 14.7844C197.245 14.7844 195.832 15.7178 195.832 17.4545C195.832 19.1914 197.245 20.1253 199.327 20.1253ZM166.254 19.0618C168.31 19.0618 169.492 20.411 169.492 21.8883C169.492 23.3663 168.31 24.6627 166.254 24.6627C164.173 24.6627 162.991 23.3663 162.991 21.8883C162.991 20.411 164.173 19.0618 166.254 19.0618ZM182.777 16.2361V10.4285H187.917V24.4288H182.777V22.2328C181.895 23.3992 180.095 24.6882 177.818 24.6882C173.244 24.6882 170.725 22.3293 170.725 17.5324V10.4285H175.865V16.5992C175.865 19.0365 177.176 19.5546 179.308 19.5546C181.466 19.5546 182.777 18.6731 182.777 16.2361Z" fill="white"/>
<path fill-rule="evenodd" clip-rule="evenodd" d="M21.3276 12.7986V10.5H16.1883V24.5001H21.3276V17.8633C21.3276 15.8925 22.2271 15.815 27.5205 15.815V10.5H26.5441C24.3231 10.5 22.6788 11.3341 21.3276 12.7986Z" fill="white"/>
<path fill-rule="evenodd" clip-rule="evenodd" d="M4 17.5002C4 7.84881 11.7797 0 21.3459 0C30.9117 0 38.6912 7.84881 38.6912 17.5002C38.6912 27.1514 30.9117 35 21.3459 35C11.7797 35 4 27.1514 4 17.5002ZM7.46912 17.5002C7.46912 25.218 13.6961 31.5 21.3459 31.5C28.9955 31.5 35.2221 25.218 35.2221 17.5002C35.2221 9.7822 28.9955 3.49995 21.3459 3.49995C13.6961 3.49995 7.46912 9.7822 7.46912 17.5002Z" fill="white"/>
</g>
<defs>
<filter id="filter0_d_258_54" x="0" y="0" width="212.218" height="43" filterUnits="userSpaceOnUse" color-interpolation-filters="sRGB">
<feFlood flood-opacity="0" result="BackgroundImageFix"/>
<feColorMatrix in="SourceAlpha" type="matrix" values="0 0 0 0 0 0 0 0 0 0 0 0 0 0 0 0 0 0 127 0" result="hardAlpha"/>
<feOffset dy="4"/>
<feGaussianBlur stdDeviation="2"/>
<feComposite in2="hardAlpha" operator="out"/>
<feColorMatrix type="matrix" values="0 0 0 0 0 0 0 0 0 0 0 0 0 0 0 0 0 0 0.14 0"/>
<feBlend mode="normal" in2="BackgroundImageFix" result="effect1_dropShadow_258_54"/>
<feBlend mode="normal" in="SourceGraphic" in2="effect1_dropShadow_258_54" result="shape"/>
</filter>
</defs>
</svg>
