<svg width="198" height="52" viewBox="0 0 198 52" fill="none" xmlns="http://www.w3.org/2000/svg">
<g filter="url(#filter0_d_267_13789)">
<path d="M4 33.4676H8.85124V29.0968H4V33.4676ZM10.9183 33.4676H15.7695V24.8509H10.9183V33.4676ZM17.8366 33.4676H22.6878V20.605H17.8366V33.4676ZM24.7549 33.4676H29.6061V16.3591H24.7549V33.4676ZM50.1501 27.848C50.1501 24.8093 47.5346 22.3117 44.3708 22.3117H40.6585C40.2367 22.3117 39.3508 22.1036 39.3508 21.3127C39.3508 20.4802 40.2367 20.2304 40.6585 20.2304H48.1674V16.2343H40.1101C37.0306 16.2343 34.4996 18.6486 34.4996 21.6041C34.4996 24.5595 37.0306 26.9739 40.1101 26.9739H43.8646C44.3708 26.9739 45.341 27.2236 45.341 28.2227C45.341 29.2217 44.413 29.4298 43.8646 29.4298H36.0182V33.4259H44.3708C47.5768 33.3843 50.1501 30.8867 50.1501 27.848ZM65.7584 24.8509C65.7584 27.3485 63.6914 29.3466 61.2025 29.3466C58.6714 29.3466 56.6465 27.3069 56.6465 24.8509C56.6465 22.395 58.7136 20.3553 61.2025 20.3553C63.6914 20.3137 65.7584 22.3533 65.7584 24.8509ZM70.5675 24.8509C70.5675 19.7309 66.349 15.5682 61.1603 15.5682C58.6714 15.5682 56.4356 16.5257 54.7482 18.0658V16.2759H51.7109V43.0416H56.5622V32.9681C57.9121 33.7173 59.4729 34.1336 61.1181 34.1336C66.349 34.1336 70.5675 29.971 70.5675 24.8509ZM85.8806 24.8509C85.8806 27.3485 83.8135 29.3466 81.3246 29.3466C78.7935 29.3466 76.7687 27.3069 76.7687 24.8509C76.7687 22.395 78.8357 20.3553 81.3246 20.3553C83.8135 20.3137 85.8806 22.3533 85.8806 24.8509ZM90.7318 24.8509C90.7318 19.7309 86.5133 15.5682 81.3246 15.5682C76.1359 15.5682 71.9174 19.7309 71.9174 24.8509C71.9174 29.971 76.1359 34.1336 81.3246 34.1336C86.4711 34.1336 90.7318 29.971 90.7318 24.8509ZM102.248 20.4385H104.02V15.6515H102.248C99.7593 15.6515 97.5235 16.6089 95.8361 18.1491V16.3591H92.7988V33.5092H97.6501V24.9342C97.6923 22.4366 99.7593 20.4385 102.248 20.4385ZM110.643 20.3137H114.397V15.5682H110.643V7.40949H105.792V33.3843H110.643V20.3137ZM130.47 24.8509C130.47 27.3485 128.403 29.3466 125.914 29.3466C123.383 29.3466 121.358 27.3069 121.358 24.8509C121.358 22.395 123.425 20.3553 125.914 20.3553C128.403 20.3137 130.47 22.3533 130.47 24.8509ZM135.321 24.8509C135.321 19.7309 131.103 15.5682 125.914 15.5682C124.226 15.5682 122.623 16.0261 121.274 16.7754V0H116.422V33.3427H119.46V31.5944C121.147 33.1762 123.425 34.1336 125.914 34.1336C131.103 34.1336 135.321 29.971 135.321 24.8509ZM151.056 24.8509C151.056 27.3485 148.989 29.3466 146.5 29.3466C143.969 29.3466 141.944 27.3069 141.944 24.8509C141.944 22.395 144.011 20.3553 146.5 20.3553C149.031 20.3137 151.056 22.3533 151.056 24.8509ZM152.912 33.3427H155.949V16.2759H152.912V18.0658C151.225 16.5257 148.989 15.5682 146.5 15.5682C141.311 15.5682 137.093 19.7309 137.093 24.8509C137.093 29.971 141.311 34.1336 146.5 34.1336C148.989 34.1336 151.225 33.1762 152.912 31.636V33.3427ZM169.491 33.3843H174.342V23.6438C174.342 19.1897 170.672 15.5266 166.116 15.5266C164.133 15.5266 162.361 16.1926 160.927 17.3582V16.2343H157.89V22.6863V33.3011V33.3427H162.741V23.6438C162.741 21.8122 164.26 20.3137 166.116 20.3137C167.972 20.3137 169.491 21.8122 169.491 23.6438V33.3843ZM187.714 24.1433L193.114 16.2343H187.25L183.454 21.7706H181.345V0H176.536V33.3427H181.387V26.5576H183.496L188.136 33.3427H194L187.714 24.1433Z" fill="white"/>
</g>
<defs>
<filter id="filter0_d_267_13789" x="0" y="0" width="198" height="51.0415" filterUnits="userSpaceOnUse" color-interpolation-filters="sRGB">
<feFlood flood-opacity="0" result="BackgroundImageFix"/>
<feColorMatrix in="SourceAlpha" type="matrix" values="0 0 0 0 0 0 0 0 0 0 0 0 0 0 0 0 0 0 127 0" result="hardAlpha"/>
<feOffset dy="4"/>
<feGaussianBlur stdDeviation="2"/>
<feComposite in2="hardAlpha" operator="out"/>
<feColorMatrix type="matrix" values="0 0 0 0 0 0 0 0 0 0 0 0 0 0 0 0 0 0 0.14 0"/>
<feBlend mode="normal" in2="BackgroundImageFix" result="effect1_dropShadow_267_13789"/>
<feBlend mode="normal" in="SourceGraphic" in2="effect1_dropShadow_267_13789" result="shape"/>
</filter>
</defs>
</svg>
