<svg width="34" height="26" viewBox="0 0 34 26" fill="none" xmlns="http://www.w3.org/2000/svg">
<path d="M28.7824 2.36355C26.6149 1.38605 24.2916 0.663548 21.862 0.252715C21.8404 0.248561 21.818 0.251238 21.7979 0.260375C21.7779 0.269512 21.7611 0.284658 21.7501 0.303715C21.4526 0.826465 21.1211 1.50788 20.8888 2.04621C18.312 1.66122 15.6923 1.66122 13.1155 2.04621C12.8567 1.4496 12.5649 0.867866 12.2414 0.303715C12.2305 0.284423 12.2139 0.268935 12.1939 0.259316C12.1739 0.249698 12.1514 0.246406 12.1295 0.249881C9.70134 0.660714 7.378 1.38321 5.20909 2.36213C5.19043 2.36996 5.17461 2.3833 5.16375 2.40038C0.755085 8.88163 -0.453331 15.2028 0.140252 21.4446C0.141904 21.4599 0.146649 21.4747 0.154199 21.4881C0.161749 21.5015 0.171946 21.5132 0.184169 21.5225C2.75739 23.396 5.62748 24.8231 8.67425 25.7442C8.69549 25.7508 8.71821 25.7507 8.73944 25.7442C8.76067 25.7376 8.77942 25.7248 8.79325 25.7074C9.44888 24.8306 10.0299 23.9003 10.5301 22.9265C10.537 22.9131 10.541 22.8985 10.5418 22.8835C10.5426 22.8685 10.5402 22.8535 10.5347 22.8395C10.5292 22.8256 10.5207 22.813 10.5099 22.8025C10.4991 22.7921 10.4862 22.7841 10.472 22.7791C9.55684 22.4345 8.67012 22.0186 7.82 21.5353C7.80473 21.5266 7.79185 21.5142 7.78254 21.4993C7.77323 21.4844 7.76776 21.4674 7.76664 21.4498C7.76552 21.4323 7.76877 21.4147 7.7761 21.3987C7.78344 21.3827 7.79463 21.3688 7.80867 21.3582C7.98717 21.2265 8.16567 21.089 8.33567 20.9516C8.35097 20.9393 8.3694 20.9314 8.38891 20.9289C8.40842 20.9264 8.42824 20.9294 8.44617 20.9375C14.0094 23.4365 20.0345 23.4365 25.5326 20.9375C25.5506 20.9289 25.5706 20.9255 25.5904 20.9278C25.6102 20.93 25.6289 20.9378 25.6445 20.9502C25.8145 21.089 25.9916 21.2265 26.1715 21.3582C26.1857 21.3686 26.1971 21.3823 26.2046 21.3982C26.2122 21.414 26.2157 21.4315 26.2149 21.449C26.214 21.4666 26.2088 21.4836 26.1998 21.4987C26.1907 21.5138 26.1781 21.5263 26.163 21.5353C25.3158 22.0226 24.4347 22.4349 23.5096 22.7777C23.4954 22.7829 23.4824 22.791 23.4716 22.8016C23.4608 22.8121 23.4524 22.8249 23.4469 22.8389C23.4414 22.853 23.4389 22.8681 23.4397 22.8832C23.4405 22.8983 23.4446 22.913 23.4515 22.9265C23.9615 23.8997 24.5452 24.8262 25.1869 25.706C25.2003 25.724 25.2189 25.7375 25.2401 25.7446C25.2614 25.7517 25.2844 25.7521 25.3059 25.7456C28.3579 24.8271 31.2327 23.3993 33.8088 21.5225C33.8213 21.5138 33.8319 21.5024 33.8397 21.4892C33.8475 21.476 33.8524 21.4613 33.8541 21.446C34.5624 14.2295 32.6669 7.95938 28.8263 2.40321C28.8169 2.38516 28.8013 2.37108 28.7824 2.36355ZM11.3617 17.6437C9.68717 17.6437 8.30592 16.1293 8.30592 14.272C8.30592 12.4134 9.66025 10.9004 11.3617 10.9004C13.0758 10.9004 14.4443 12.4261 14.4174 14.272C14.4174 16.1307 13.0631 17.6437 11.3617 17.6437ZM22.6596 17.6437C20.9837 17.6437 19.6038 16.1293 19.6038 14.272C19.6038 12.4134 20.9568 10.9004 22.6596 10.9004C24.3738 10.9004 25.7423 12.4261 25.7153 14.272C25.7153 16.1307 24.3752 17.6437 22.6596 17.6437Z" fill="white"/>
</svg>
