<svg width="153" height="113" viewBox="0 0 153 113" fill="none" xmlns="http://www.w3.org/2000/svg">
<path d="M41.5673 24.0467C43.5304 23.4524 45.8731 22.9807 48.5955 22.6317C49.8641 22.4618 51.1605 22.3392 52.4661 22.2449C57.1053 12.7449 70.1617 2.06568 87.0886 2.26379C87.0886 2.26379 88.3572 -0.339973 89.7091 0.0373843C90.6073 0.282667 90.6999 1.75436 90.737 2.67889C90.7925 3.9053 90.0795 5.45246 89.1998 5.20718C87.8479 4.82982 87.1349 3.16002 87.1349 3.16002C87.1349 3.16002 68.0319 1.21663 55.2163 22.1222C55.8089 22.1034 56.4108 22.0939 57.022 22.0939C58.022 22.0939 59.2443 22.1411 60.6703 22.2166C61.9667 22.2826 63.3094 22.4147 64.6984 22.6034C69.3098 15.2826 80.4771 7.78264 93.9687 9.05623C93.9687 9.05623 95.1817 7.0185 96.2558 7.41472C96.9781 7.67887 96.9503 8.88641 96.9225 9.65056C96.8855 10.6506 96.191 11.8675 95.4965 11.6128C94.4224 11.2166 93.9501 9.79207 93.9501 9.79207C93.9501 9.79207 78.6437 6.94302 66.8096 22.943C67.7541 23.1222 68.6893 23.3486 69.6153 23.6034C71.0969 24.0184 72.4303 24.5656 73.6063 25.2543C74.7823 25.943 75.7361 26.7826 76.4676 27.792C77.2084 28.792 77.5695 29.9996 77.5695 31.4146C77.5695 32.7543 77.1713 33.9524 76.3843 35.0184C75.5972 36.075 74.6156 37.0278 73.4582 37.8769C72.3007 38.7165 71.0876 39.4429 69.8098 40.0561C68.5412 40.6693 67.4208 41.1882 66.4577 41.6222C63.8279 42.8769 61.8556 43.9618 60.5222 44.8674C59.1888 45.7637 58.5498 46.5372 58.5869 47.1599C58.6239 47.6316 58.9295 48.2071 59.5129 48.8769C60.087 49.5467 60.7259 50.2731 61.4204 51.0561C62.1149 51.8391 62.7353 52.7165 63.2724 53.6787C63.8094 54.641 64.0594 55.6599 64.0224 56.7165C63.9854 57.8957 63.7168 59.0844 63.2168 60.2825C62.7168 61.4806 62.0223 62.6598 61.1333 63.8202C60.2444 64.9806 59.1888 66.0938 57.9757 67.1598C56.7627 68.2164 55.4385 69.1975 54.0125 70.1032C51.5402 71.6409 48.8363 73.056 45.9102 74.3485C42.9748 75.6504 39.9006 76.7541 36.7059 77.6504C33.502 78.556 30.2426 79.2164 26.9461 79.6315C23.6496 80.0466 20.3994 80.122 17.1955 79.8673C13.9916 79.6126 10.9358 78.9805 8.019 77.9805C5.10216 76.9805 2.43533 75.5089 0 73.5843L0.175937 73.3485C2.45385 74.6504 5.0466 75.6504 7.96345 76.3579C10.871 77.0655 13.8897 77.4145 17.0196 77.4145C19.566 77.4145 22.168 77.2541 24.8348 76.9145C27.5017 76.5843 30.0944 76.1221 32.6223 75.5277C35.1503 74.9428 37.5301 74.2541 39.7709 73.4711C42.0118 72.6787 43.9934 71.8391 45.7343 70.9334C46.9658 70.2636 48.3177 69.4428 49.7808 68.4806C51.2531 67.5183 52.6236 66.49 53.8922 65.3862C55.17 64.2825 56.2256 63.141 57.0775 61.9334C57.9294 60.7353 58.3554 59.5655 58.3554 58.424C58.3554 57.4429 58.0498 56.5561 57.4572 55.7731C56.8553 54.9901 56.2071 54.207 55.5126 53.4429C54.8181 52.6787 54.1699 51.8957 53.5773 51.0844C52.9754 50.2825 52.6791 49.3674 52.6791 48.3391C52.6791 47.2825 53.244 46.2071 54.3829 45.1316C55.5219 44.0467 56.9109 42.9712 58.5591 41.9146C60.1981 40.8486 61.9297 39.8014 63.7631 38.7542C65.5966 37.7165 67.217 36.6977 68.6245 35.6882C70.032 34.6882 71.0599 33.7165 71.6988 32.7731C72.3285 31.8297 72.2822 30.9052 71.5506 29.9996C71.0876 29.4147 70.3561 28.8958 69.3468 28.4713C68.3467 28.0373 67.1615 27.6694 65.791 27.3769C64.4206 27.0845 62.8927 26.8581 61.2167 26.6977C59.5406 26.5373 57.7905 26.4618 55.9756 26.4618C53.1977 26.4618 50.3456 26.6694 47.4103 27.0845C44.4749 27.4901 41.7988 28.0939 39.3635 28.8769C38.669 29.1128 38.2431 29.1505 38.0949 28.9996C37.9375 28.8392 37.993 28.5373 38.2616 28.0845C38.5301 27.6316 38.9468 27.0656 39.5117 26.3769C40.0672 25.6882 40.7154 24.9524 41.447 24.16L41.5673 24.0467ZM58.4109 31.2354C55.7812 32.7354 53.3921 34.2543 51.2346 35.8109C49.0678 37.3675 47.0306 38.9524 45.1231 40.5844C43.2156 42.2165 41.4007 43.8957 39.6876 45.6316C37.9653 47.358 36.2152 49.1221 34.4465 50.9052C32.6686 52.6976 30.8352 54.5467 28.9462 56.4523C27.0572 58.358 25.0108 60.3108 22.8069 62.3202C25.0108 58.9806 27.2424 55.7353 29.5203 52.5938C31.7982 49.4429 34.1595 46.4335 36.6133 43.5656C39.0672 40.6976 41.6414 37.9618 44.3453 35.3675C47.0399 32.7731 49.9197 30.3769 52.9662 28.1694C53.3921 27.8581 53.9292 27.7071 54.5866 27.726C55.2441 27.7543 55.883 27.8203 56.5034 27.9335C56.5775 27.9335 56.6701 27.9524 56.7905 27.9996C56.9016 28.0373 57.0035 28.0562 57.0775 28.0562C58.0035 28.1316 58.7536 28.3392 59.3369 28.6694C59.911 29.009 60.124 29.3958 59.9759 29.8203V29.7637C59.8925 30.1222 59.5869 30.4524 59.0499 30.7637C59.2443 30.6882 59.2073 30.726 58.9573 30.8863C58.7073 31.0467 58.5498 31.1599 58.4665 31.2354H58.4109ZM69.3561 64.4428C68.9671 65.1127 68.7356 65.6693 68.6523 66.1221C68.5782 66.5749 68.7356 66.9617 69.1153 67.273C69.3098 67.4334 69.6616 67.4428 70.1617 67.3013C70.6617 67.1693 71.2265 66.9617 71.8377 66.6881C72.4581 66.4051 73.0692 66.0844 73.6619 65.7164C74.2638 65.3391 74.773 64.99 75.199 64.6787C75.3564 64.5655 75.6527 64.3202 76.0972 63.9428C76.5417 63.5655 76.9954 63.1693 77.4584 62.7353C77.9214 62.3013 78.3659 61.8957 78.7918 61.5278C79.2085 61.1504 79.5233 60.8674 79.7178 60.6693C80.0234 60.4712 80.2549 60.4995 80.4123 60.7542C80.5604 61.0089 80.5419 61.2353 80.3475 61.4334C80.153 61.6693 79.6159 62.1881 78.727 62.9995C77.8381 63.8013 76.7454 64.7825 75.4305 65.9145C73.2267 67.8013 70.8191 68.8674 68.1893 69.1032C67.6893 69.1409 67.1985 69.1504 66.717 69.1315C66.2355 69.1126 65.8003 69.0277 65.4114 68.8674C65.0317 68.707 64.7076 68.4994 64.4576 68.2447C64.2076 67.99 64.0687 67.6504 64.0224 67.2164C63.9483 66.0749 64.3372 64.7259 65.1799 63.1787C66.0318 61.6221 67.1893 60.1598 68.6523 58.7825C69.3098 58.1504 70.1894 57.4712 71.2914 56.7448C72.3933 56.0183 73.523 55.4995 74.6805 55.1882C75.3749 54.9901 76.0324 54.9146 76.6435 54.9806C77.2639 55.0372 77.8381 55.2825 78.3844 55.7165C78.8103 56.1504 79.0233 56.5466 79.0233 56.924C79.0233 57.3014 78.9214 57.7165 78.727 58.1882C78.1899 59.49 77.1436 60.7447 75.6064 61.9617C74.486 62.8296 73.3748 63.4429 72.2729 63.7919C71.171 64.1504 70.1987 64.3674 69.3561 64.4428ZM77.051 58.8391C76.8565 58.7259 76.6343 58.6976 76.3843 58.7542C76.1342 58.8108 75.8564 58.8957 75.5416 59.0183C75.162 59.1787 74.7545 59.3768 74.3286 59.641C73.9026 59.8957 73.4859 60.1598 73.0878 60.4334C72.6803 60.707 72.3007 60.9806 71.9581 61.2542C71.6062 61.5372 71.3191 61.773 71.0876 61.9617C70.7821 62.2825 70.5783 62.4995 70.4765 62.6127C70.3839 62.7353 70.3283 62.8202 70.3098 62.8768C70.2913 62.9429 70.2913 62.9712 70.3098 62.9712C70.3283 62.9712 70.3006 63.0089 70.2172 63.0844C70.8747 63.0844 71.6618 62.8674 72.56 62.4429C73.4674 62.0089 74.236 61.5561 74.8471 61.0844C75.4675 60.6127 75.9213 60.1976 76.2083 59.8391C76.5046 59.49 76.7824 59.1599 77.051 58.8391ZM82.0883 64.4428C81.6994 65.1127 81.4679 65.6693 81.3938 66.1221C81.3197 66.5749 81.4679 66.9617 81.8568 67.273C82.0513 67.4334 82.3939 67.4428 82.8939 67.3013C83.4032 67.1693 83.9588 66.9617 84.5792 66.6881C85.1903 66.4051 85.8015 66.0844 86.4034 65.7164C86.996 65.3391 87.5053 64.99 87.9313 64.6787C88.0887 64.5655 88.385 64.3202 88.8295 63.9428C89.2739 63.5655 89.7277 63.1693 90.1907 62.7353C90.6536 62.3013 91.0981 61.8957 91.5241 61.5278C91.95 61.1504 92.2556 60.8674 92.45 60.6693C92.7556 60.4712 92.9871 60.4995 93.1445 60.7542C93.3019 61.0089 93.2834 61.2353 93.089 61.4334C92.8945 61.6693 92.3482 62.1881 91.4685 62.9995C90.5796 63.8013 89.4776 64.7825 88.1628 65.9145C85.9682 67.8013 83.5514 68.8674 80.9308 69.1032C80.4308 69.1409 79.94 69.1504 79.4493 69.1315C78.9678 69.1126 78.5325 69.0277 78.1529 68.8674C77.764 68.707 77.4491 68.4994 77.1991 68.2447C76.9491 67.99 76.8009 67.6504 76.7639 67.2164C76.6806 66.0749 77.0695 64.7259 77.9214 63.1787C78.764 61.6221 79.9215 60.1598 81.3938 58.7825C82.0513 58.1504 82.9309 57.4712 84.0236 56.7448C85.1255 56.0183 86.2552 55.4995 87.4127 55.1882C88.1072 54.9901 88.7646 54.9146 89.385 54.9806C89.9962 55.0372 90.5796 55.2825 91.1166 55.7165C91.5426 56.1504 91.7556 56.5466 91.7556 56.924C91.7556 57.3014 91.6537 57.7165 91.4685 58.1882C90.9222 59.49 89.8851 60.7447 88.3387 61.9617C87.2182 62.8296 86.1071 63.4429 85.0144 63.7919C83.9125 64.1504 82.9402 64.3674 82.0883 64.4428ZM89.7832 58.8391C89.5888 58.7259 89.3758 58.6976 89.1165 58.7542C88.8665 58.8108 88.5887 58.8957 88.2831 59.0183C87.8942 59.1787 87.4868 59.3768 87.0608 59.641C86.6441 59.8957 86.2274 60.1598 85.82 60.4334C85.4126 60.707 85.0422 60.9806 84.6903 61.2542C84.3477 61.5372 84.0514 61.773 83.8199 61.9617C83.5143 62.2825 83.3106 62.4995 83.218 62.6127C83.1161 62.7353 83.0606 62.8202 83.0421 62.8768C83.0235 62.9429 83.0235 62.9712 83.0421 62.9712C83.0606 62.9712 83.0328 63.0089 82.9587 63.0844C83.6069 63.0844 84.394 62.8674 85.3015 62.4429C86.2089 62.0089 86.9682 61.5561 87.5886 61.0844C88.1998 60.6127 88.6535 60.1976 88.9498 59.8391C89.2369 59.49 89.5147 59.1599 89.7832 58.8391Z" fill="#FFC204"/>
<path d="M28.4276 87.6128C27.335 89.377 26.3071 91.1694 25.3349 92.9902C24.3718 94.8204 23.557 96.443 22.9088 97.8581C22.2606 99.4241 21.7513 100.877 21.3809 102.235C21.0013 103.584 20.7513 104.679 20.6124 105.509C20.5105 106.132 20.5846 106.528 20.8439 106.679C21.1031 106.839 21.455 106.839 21.918 106.679C22.3717 106.528 22.8995 106.254 23.4736 105.877C24.057 105.49 24.6219 105.084 25.1867 104.651C25.7516 104.217 26.2701 103.783 26.7424 103.349C27.2239 102.915 27.5943 102.584 27.8628 102.339C29.6685 100.566 31.5852 98.509 33.6131 96.1694C35.641 93.8298 37.5949 91.4808 39.4839 89.1223C41.3821 86.7544 43.1415 84.5468 44.7712 82.4808C46.4102 80.4148 47.7344 78.7827 48.7622 77.5657C49.2715 76.9714 49.8271 76.3487 50.4197 75.6884C51.0123 75.028 51.6883 74.6318 52.4384 74.4902C52.8087 74.4242 53.2903 74.4808 53.8644 74.6506C54.4477 74.8204 54.957 75.0846 55.4015 75.4336C55.846 75.7733 56.1145 76.1884 56.2164 76.6506C56.3182 77.1223 56.096 77.6129 55.5497 78.1412C54.7996 79.4525 53.9384 80.9053 52.9476 82.4808C51.9568 84.0657 50.929 85.6978 49.8549 87.3959C48.7807 89.1034 47.7251 90.8392 46.688 92.6034C45.6509 94.377 44.7342 96.1128 43.9286 97.8109C43.1322 99.509 42.4748 101.141 41.9655 102.698C41.4562 104.264 41.1969 105.669 41.1969 106.915C41.1969 108.377 41.7155 109.367 42.7618 109.905C43.7989 110.443 45.0305 110.471 46.4565 109.99L46.6139 110.141C45.6602 111.009 44.5675 111.688 43.3452 112.169C42.1229 112.66 40.9562 112.849 39.845 112.745C38.7431 112.641 37.7986 112.188 37.0393 111.396C36.2707 110.594 35.8911 109.358 35.8911 107.698C35.8911 105.962 36.2985 103.971 37.1134 101.717C37.9282 99.4619 38.9468 97.16 40.1506 94.8204C41.3636 92.4713 42.66 90.1977 44.0304 87.9713C45.4102 85.7544 46.6787 83.811 47.8362 82.1412C47.0214 83.1129 46.1972 84.1129 45.3639 85.1317C44.5305 86.16 43.6878 87.1883 42.8359 88.2355C41.271 90.2072 39.6042 92.2543 37.8541 94.377C36.104 96.4902 34.3261 98.4996 32.539 100.415C30.7519 102.32 28.9832 104.028 27.2331 105.537C25.4738 107.047 23.8163 108.179 22.2513 108.943C21.3254 109.358 20.4735 109.537 19.6956 109.471C18.9086 109.396 18.2326 109.141 17.6492 108.688C17.0751 108.235 16.6121 107.641 16.2695 106.886C15.9269 106.141 15.7602 105.32 15.7602 104.415C15.7602 103.311 15.9454 102.075 16.3251 100.726C16.8344 98.9147 17.5751 96.9524 18.5474 94.8204C19.5197 92.6789 20.6494 90.4713 21.9458 88.1789C23.2329 85.8959 24.6589 83.6034 26.2053 81.311C27.7517 79.0185 29.3536 76.8204 31.0111 74.6978C32.6594 72.5846 34.3354 70.6223 36.0392 68.8205C37.743 67.0186 39.4098 65.4714 41.0488 64.1884C42.1044 63.3582 42.8637 62.6695 43.3174 62.1318C43.7804 61.5941 44.0119 61.1884 44.0119 60.9148C44.0119 60.6978 43.6878 60.5941 43.0396 60.5941C42.2248 60.5941 41.1136 60.7639 39.7154 61.0941C38.3264 61.4242 36.817 61.8488 35.1966 62.3676C33.5761 62.8865 31.9464 63.4525 30.2889 64.0563C28.6406 64.6695 27.159 65.2544 25.8534 65.8299C24.5385 66.4054 23.4736 66.9054 22.6588 67.3393C21.8347 67.7733 21.4828 68.0563 21.5846 68.1978L21.2235 68.3016C21.1587 67.9525 21.1031 67.6506 21.0476 67.3865C20.992 67.1318 21.1216 66.8393 21.4272 66.5091C21.7328 66.179 22.3069 65.7733 23.1403 65.311C23.9737 64.8393 25.2608 64.2261 27.0016 63.462C27.5757 63.2167 28.3258 62.9148 29.2425 62.5469C30.1685 62.1884 31.1871 61.7922 32.3075 61.3771C33.4372 60.962 34.6225 60.5375 35.8911 60.1035C37.1504 59.6695 38.4005 59.2922 39.6413 58.962C40.8821 58.6318 42.0859 58.3582 43.2434 58.1507C44.4008 57.9431 45.4565 57.8394 46.4102 57.8394C46.7806 57.8394 47.1973 57.8771 47.6603 57.9431C48.1233 58.0092 48.5492 58.1224 48.9381 58.2828C49.3271 58.4337 49.6604 58.6601 49.9382 58.962C50.2067 59.2544 50.3456 59.6129 50.3456 60.028C50.3456 60.5092 50.1049 61.0941 49.6234 61.7733C49.1511 62.4431 48.6048 63.1129 47.9936 63.7733C47.3825 64.4337 46.7621 65.0374 46.1324 65.594C45.5028 66.1507 45.0305 66.5846 44.7249 66.8959C41.4932 70.0563 38.5394 73.3582 35.8911 76.811C33.2335 80.2638 30.7426 83.8581 28.4276 87.6128ZM60.9203 99.2638C60.6426 99.5468 60.374 99.7921 60.0962 100.018C59.8277 100.245 59.5592 100.462 59.2814 100.669C58.5684 101.264 57.735 101.745 56.7812 102.132C55.8274 102.509 54.7718 102.528 53.6144 102.179C53.2347 102.075 52.9569 101.773 52.7717 101.273C52.5865 100.764 52.6606 100.028 53.0032 99.0562C53.068 98.8487 53.1606 98.6694 53.281 98.509C53.4014 98.3581 53.5032 98.1883 53.5866 98.0185C53.6699 97.8392 53.6977 97.6317 53.6607 97.3958C53.6329 97.1506 53.494 96.8204 53.2532 96.4053C53.5958 96.4713 54.0496 96.3864 54.6052 96.1411C55.17 95.9053 55.7256 95.5845 56.2719 95.2072C56.8182 94.8298 57.2905 94.3958 57.6979 93.9336C58.1054 93.4619 58.3276 93.0185 58.3646 92.6034C58.4295 91.9808 58.3276 91.6977 58.0591 91.7449C57.7813 91.8015 57.5127 91.9242 57.2349 92.1317C55.9108 93.0751 54.7163 94.0562 53.6607 95.0751C52.605 96.1034 51.5865 97.1317 50.5956 98.1694L49.4197 99.7826C49.0863 100.273 48.7807 100.669 48.5029 100.981C48.2344 101.292 47.9196 101.547 47.5584 101.735C47.1973 101.934 46.7713 102.056 46.2528 102.132C45.7435 102.198 45.0953 102.235 44.3175 102.235H43.8545C44.5397 101.292 45.4194 99.9902 46.5121 98.3298C47.6047 96.66 48.7437 94.8958 49.9382 93.0185C51.1235 91.1506 52.2809 89.311 53.4106 87.5091C54.5311 85.6978 55.4663 84.1695 56.2164 82.9242C56.7257 82.1223 57.1516 81.4336 57.4942 80.8393C57.8368 80.2544 58.0776 79.8204 58.2072 79.5374C58.5128 78.9525 58.6887 78.4336 58.7165 77.9808C58.7906 77.2827 58.8554 76.8959 58.9295 76.811C58.9943 76.7261 59.2999 76.9053 59.8462 77.3582C60.4203 77.8393 60.7907 78.4431 60.9389 79.1506C61.0963 79.8582 60.9481 80.7261 60.5129 81.7261C60.4759 81.8298 60.2722 82.2261 59.8925 82.8959C59.5221 83.5751 59.0499 84.3864 58.4943 85.3487C57.9294 86.3015 57.3183 87.3204 56.6516 88.4147C55.9849 89.5091 55.3737 90.5279 54.8089 91.4902C54.2533 92.443 53.7625 93.2543 53.3551 93.9336C52.9476 94.6128 52.7069 94.9996 52.6421 95.1034C53.6607 94.0657 54.7533 93.0562 55.9108 92.0845C57.0683 91.1128 58.022 90.4147 58.7721 89.9996C59.0776 89.8298 59.4295 89.6789 59.8184 89.5562C60.2073 89.443 60.5592 89.4619 60.8648 89.6411C61.513 89.811 61.9297 90.1034 62.1149 90.5185C62.3093 90.943 62.3093 91.4147 62.1426 91.9525C61.976 92.4902 61.6704 93.0562 61.2259 93.6411C60.7815 94.2355 60.2907 94.7826 59.7444 95.2826C59.198 95.7921 58.6332 96.2166 58.0591 96.5562C57.4757 96.9053 56.9479 97.0939 56.4756 97.1317C56.7442 97.4807 56.9201 97.8298 56.9849 98.1694C57.0497 98.5185 57.0775 98.8487 57.059 99.16C57.0405 99.4713 57.0127 99.7449 56.9571 99.9713C56.9108 100.198 56.8831 100.358 56.8831 100.462C56.8831 100.811 57.3553 100.669 58.3091 100.047C59.4017 99.3487 60.4203 98.5939 61.3741 97.7543C62.3278 96.9241 63.2631 96.0562 64.1891 95.1506C64.4206 94.9147 64.6243 94.8958 64.7724 95.1034C64.9299 95.3109 64.9021 95.4996 64.6984 95.6789L60.9203 99.2638ZM69.3931 89.3298C69.1894 88.1506 69.3653 86.9525 69.9116 85.7355C70.4487 84.5185 71.0691 83.4619 71.7451 82.5563C72.1247 82.0751 72.5322 81.6223 72.9766 81.2072C73.4118 80.7921 73.8934 80.4431 74.4026 80.1695C74.7082 79.9902 75.0508 79.877 75.4212 79.8299C75.8009 79.7732 76.125 79.9053 76.3935 80.2166C76.6713 80.6034 76.7824 81.0563 76.7269 81.594C76.6806 82.1317 76.5787 82.6129 76.4491 83.028C76.2731 83.6223 76.0324 84.2449 75.7083 84.9053C75.3842 85.5657 75.0045 86.1978 74.5786 86.8015C74.1526 87.4053 73.6989 87.9525 73.1989 88.443C72.7081 88.9242 72.1895 89.2921 71.6432 89.5374L71.3376 89.6883C71.3376 89.726 71.3562 89.877 71.3932 90.1317C71.421 90.3959 71.5228 91.0562 71.6988 92.1317C71.8006 92.9336 71.7451 93.7166 71.5414 94.4807C71.3006 95.2449 70.8932 95.8864 70.3191 96.4053C69.7357 96.9241 69.1616 97.4241 68.5782 97.9147C68.3097 98.16 68.0319 98.377 67.7634 98.5939C67.4856 98.8015 67.2726 99.0751 67.0966 99.4241C66.93 99.8015 66.9115 100.047 67.0504 100.151C67.1522 100.358 67.3281 100.424 67.5874 100.358C67.8374 100.292 68.1152 100.169 68.4023 99.9902C68.6893 99.8204 68.9579 99.6411 69.1894 99.4524C69.4301 99.2543 69.5875 99.1411 69.6524 99.1128C70.5691 98.4147 71.4765 97.6789 72.3562 96.8958C73.2452 96.1128 74.1341 95.3298 75.0138 94.5279C75.2546 94.3581 75.4583 94.3392 75.6249 94.4807C75.8009 94.6128 75.7638 94.8298 75.5231 95.1034C75.0508 95.4807 74.4119 96.0562 73.6156 96.8204C72.81 97.5845 71.9581 98.3487 71.0599 99.1128C70.1524 99.877 69.282 100.537 68.4486 101.113C67.6152 101.688 66.93 101.971 66.3836 101.971C65.9021 101.971 65.4391 101.858 64.9762 101.632C64.5224 101.405 64.2076 101.056 64.0317 100.566C63.865 100.085 63.8372 99.6034 63.9576 99.1317C64.0779 98.6694 64.2724 98.2449 64.5409 97.8581C65.1891 96.9241 65.9669 96.1128 66.8652 95.4147C67.7726 94.726 68.643 94.0279 69.4949 93.3298C69.5968 93.226 69.7542 93.1034 69.9579 92.943C70.1616 92.7826 70.282 92.6411 70.3191 92.4996C70.3191 92.4619 70.2913 92.377 70.2357 92.2449C70.1894 92.1034 70.0413 91.6883 69.8098 90.9902L69.4486 91.3015C68.356 92.2449 67.3281 93.1977 66.3559 94.1694C65.3836 95.1411 64.3557 96.0751 63.2631 96.9807C63.0964 97.009 62.9482 96.9807 62.8371 96.8958C62.7168 96.8109 62.689 96.66 62.7538 96.4524C62.7538 96.4241 62.9205 96.2449 63.2446 95.9336C63.5687 95.6223 63.9668 95.2543 64.4391 94.8204C64.9206 94.3864 65.4391 93.8958 66.004 93.3581C66.5596 92.8204 67.0874 92.3204 67.5874 91.8487C68.0782 91.377 68.5041 90.9619 68.8653 90.6034C69.2171 90.2355 69.4301 89.9808 69.4949 89.8487L69.3931 89.3298ZM83.5976 100.047C84.6903 99.2166 85.8478 98.2543 87.0701 97.16C88.3016 96.0656 89.3665 95.0657 90.2925 94.1694C90.561 93.9902 90.7647 93.9619 90.9036 94.0657C91.0425 94.1694 91.024 94.3581 90.8481 94.6317C89.7647 95.7449 88.6442 96.8864 87.5053 98.0656C86.3663 99.2449 85.1996 100.292 84.0051 101.188C83.431 101.641 82.8754 101.924 82.3476 102.028C81.8198 102.132 81.2179 102.075 80.5326 101.868C79.8474 101.66 79.477 101.311 79.4122 100.83C79.3381 100.339 79.3381 100.009 79.4122 99.8392C79.1715 100.085 78.8103 100.358 78.3381 100.669C77.8566 100.981 77.338 101.264 76.7824 101.5C76.2176 101.745 75.6527 101.915 75.0971 102C74.5323 102.084 74.06 102.028 73.6896 101.82C73.31 101.613 72.9489 101.32 72.5877 100.962C72.2358 100.594 72.0229 100.235 71.9488 99.8864C71.7821 99.3015 71.8932 98.6222 72.2821 97.8581C72.6711 97.0939 73.1896 96.3392 73.8193 95.594C74.4489 94.8487 75.0971 94.1789 75.7546 93.5657C76.4213 92.9619 76.9584 92.4996 77.3658 92.1883C78.014 91.6694 78.6714 91.2166 79.3289 90.8392C79.9956 90.4525 80.6345 90.1506 81.2457 89.9242C81.8568 89.6977 82.4309 89.5751 82.9587 89.5562C83.4865 89.5468 83.9588 89.66 84.3662 89.8959C85.0144 90.2826 85.4033 90.7355 85.5422 91.2543C85.6718 91.7732 85.6811 92.3109 85.5607 92.8675C85.4496 93.4241 85.2366 93.9619 84.9218 94.4807C84.6162 94.9996 84.3292 95.4524 84.0606 95.8298L84.5699 96.094C84.8755 96.2638 85.0237 96.3864 85.0051 96.4524C84.9866 96.5279 84.894 96.6977 84.7181 96.9807L83.3939 99.1128C83.1254 99.5939 82.9495 99.9807 82.8846 100.254C82.8106 100.528 83.0513 100.462 83.5976 100.047ZM84.3106 92.8675C84.144 92.6883 83.9125 92.594 83.6254 92.5751C83.3384 92.5657 83.0143 92.6034 82.6531 92.7072C82.292 92.8109 81.9216 92.9619 81.5327 93.1506C81.1345 93.3392 80.7734 93.5562 80.4308 93.8015C79.8474 94.1789 79.3196 94.5751 78.8196 94.9713C78.3288 95.3675 77.9955 95.6789 77.8288 95.8864C76.5972 97.1694 75.7916 98.1411 75.4027 98.8015C75.0045 99.4619 74.9675 99.9053 75.2731 100.151C75.6435 100.424 76.0416 100.528 76.4491 100.434C76.8565 100.349 77.1991 100.217 77.4676 100.047C78.5233 99.4902 79.4215 98.7732 80.153 97.8864C80.8845 96.9996 81.5883 96.1223 82.2735 95.2543C82.3753 95.0845 82.4587 95.0468 82.5235 95.1506C82.5976 95.2543 82.8476 95.3675 83.2921 95.4713C83.4958 95.1883 83.6532 94.9524 83.7736 94.7638C83.894 94.5751 84.0699 94.2921 84.3106 93.9053C84.5514 93.4524 84.5514 93.1034 84.3106 92.8675ZM99.4875 81.8298C99.8579 82.1129 99.9597 82.6789 99.7931 83.5468C99.6171 84.4147 99.2097 85.3581 98.5615 86.3581C98.2559 86.8487 97.9226 87.2827 97.5707 87.66C97.2096 88.0468 96.8577 88.3487 96.5244 88.5751C96.1817 88.8015 95.8669 88.943 95.5799 89.0185C95.2835 89.0845 95.0428 89.0468 94.8391 88.9053C94.4316 88.6317 94.3113 88.0657 94.4779 87.2166C94.6446 86.3676 95.0706 85.443 95.7558 84.4336C96.404 83.4619 97.0892 82.7261 97.8207 82.2261C98.5523 81.7166 99.1078 81.5846 99.4875 81.8298ZM98.3578 95.4147C97.7466 96.009 97.1262 96.6222 96.4966 97.2638C95.8669 97.9053 95.2095 98.5185 94.5335 99.1128C93.7464 99.8015 92.9038 100.434 92.0056 101.009C91.0981 101.584 90.1351 101.924 89.1165 102.028C88.4683 102.094 87.959 102.037 87.5794 101.868C87.3757 101.764 87.1719 101.641 86.9682 101.5C86.7645 101.368 86.6071 101.179 86.5052 100.934C86.3386 100.339 86.32 99.8581 86.4589 99.4713C86.5978 99.0939 86.8015 98.6788 87.0701 98.226C87.6812 97.2166 88.4498 96.16 89.3665 95.0468C90.2925 93.943 91.0055 92.8109 91.5148 91.6694C91.8944 90.8392 92.0611 90.0374 92.0241 89.2732C92.876 89.2355 93.5242 89.377 93.9686 89.6883C94.4131 89.9996 94.7094 90.4147 94.8576 90.9147C95.015 91.4147 95.0428 91.943 94.9409 92.4996C94.8391 93.0562 94.6446 93.5562 94.3761 94.0091C94.2094 94.2543 93.9779 94.6034 93.6908 95.0468C93.3945 95.4996 93.0704 95.9902 92.7186 96.509C92.3574 97.0279 92.0056 97.5562 91.6444 98.0939C91.2833 98.6317 90.9499 99.0939 90.6444 99.4713C90.4777 99.6788 90.4036 99.8392 90.4129 99.943C90.4314 100.047 90.5055 100.103 90.6259 100.122C90.737 100.141 90.8851 100.122 91.0518 100.075C91.2277 100.018 91.3759 99.9619 91.5148 99.8864C91.9593 99.6128 92.4963 99.2355 93.126 98.7449C93.7557 98.2638 94.3853 97.7543 95.015 97.2355C95.6447 96.7166 96.2188 96.226 96.7281 95.7826C97.2374 95.3298 97.5985 94.9996 97.8022 94.7921C98.0707 94.4807 98.3022 94.4336 98.4874 94.66C98.6726 94.8864 98.6356 95.1411 98.3578 95.4147ZM113.331 94.8958C113.637 94.6128 113.877 94.5751 114.072 94.7638C114.257 94.9524 114.192 95.2072 113.887 95.5185L110.164 99.16C109.414 99.9241 108.497 100.622 107.432 101.245C106.358 101.868 105.293 102.179 104.238 102.179C103.654 102.179 103.145 102.113 102.701 101.971C102.191 101.801 101.941 101.396 101.96 100.773C101.978 100.151 102.127 99.4902 102.395 98.8015C102.636 98.1034 102.96 97.4524 103.367 96.8487C103.775 96.2355 104.201 95.66 104.645 95.1034C105.09 94.5468 105.525 93.9902 105.969 93.4336C106.414 92.8864 106.803 92.2921 107.145 91.6694L107.099 91.4053C105.562 92.4147 104.21 93.4619 103.034 94.5562C101.858 95.6506 100.765 96.7826 99.7375 97.9619C99.1634 98.66 98.6726 99.2638 98.2837 99.7826C97.8948 100.311 97.4874 100.735 97.0614 101.066C96.6355 101.396 96.1354 101.632 95.5799 101.792C95.015 101.943 94.2927 102.028 93.4038 102.028H93.0519L92.9964 101.971C94.8391 99.3675 96.404 97.1222 97.7004 95.2355C98.9875 93.3392 99.8949 91.8581 100.404 90.7826C100.543 90.4713 100.626 90.1977 100.663 89.9808C100.691 89.7543 100.738 89.5751 100.784 89.4525C100.839 89.3393 100.923 89.2638 101.043 89.2449C101.164 89.226 101.376 89.2921 101.682 89.4336C102.358 89.7449 102.821 90.1506 103.062 90.6506C103.303 91.16 103.182 91.9147 102.701 92.9147L101.728 94.8392C102.247 94.3204 102.784 93.8109 103.34 93.3109C103.904 92.8015 104.469 92.3204 105.025 91.8487C105.59 91.377 106.118 90.9619 106.608 90.6034C107.108 90.2355 107.534 89.9525 107.914 89.7449C108.321 89.4996 108.72 89.377 109.118 89.377C109.507 89.377 109.905 89.4147 110.312 89.4808C110.96 89.66 111.349 89.9336 111.488 90.311C111.627 90.6977 111.618 91.1128 111.46 91.5657C111.312 92.0185 111.062 92.4619 110.72 92.9147C110.386 93.3675 110.09 93.7543 109.858 94.0657C109.646 94.377 109.331 94.8204 108.886 95.3864C108.442 95.9619 108.007 96.5562 107.581 97.1883C107.155 97.8109 106.784 98.3958 106.46 98.9524C106.136 99.509 105.969 99.943 105.969 100.254C106.006 100.528 106.321 100.537 106.914 100.283C107.516 100.018 108.423 99.3392 109.646 98.226L113.331 94.8958ZM123.443 81.8298C123.813 82.1129 123.915 82.6789 123.748 83.5468C123.582 84.4147 123.174 85.3581 122.526 86.3581C122.22 86.8487 121.887 87.2827 121.526 87.66C121.165 88.0468 120.822 88.3487 120.48 88.5751C120.137 88.8015 119.822 88.943 119.535 89.0185C119.248 89.0845 118.998 89.0468 118.794 88.9053C118.387 88.6317 118.266 88.0657 118.433 87.2166C118.609 86.3676 119.035 85.443 119.711 84.4336C120.359 83.4619 121.054 82.7261 121.785 82.2261C122.517 81.7166 123.063 81.5846 123.443 81.8298ZM122.322 95.4147C121.702 96.009 121.081 96.6222 120.452 97.2638C119.822 97.9053 119.165 98.5185 118.489 99.1128C117.702 99.8015 116.859 100.434 115.961 101.009C115.053 101.584 114.09 101.924 113.072 102.028C112.423 102.094 111.914 102.037 111.544 101.868C111.34 101.764 111.127 101.641 110.923 101.5C110.72 101.368 110.571 101.179 110.47 100.934C110.294 100.339 110.275 99.8581 110.414 99.4713C110.553 99.0939 110.757 98.6788 111.025 98.226C111.646 97.2166 112.405 96.16 113.331 95.0468C114.248 93.943 114.961 92.8109 115.47 91.6694C115.85 90.8392 116.016 90.0374 115.988 89.2732C116.831 89.2355 117.479 89.377 117.924 89.6883C118.368 89.9996 118.665 90.4147 118.822 90.9147C118.97 91.4147 118.998 91.943 118.896 92.4996C118.794 93.0562 118.609 93.5562 118.331 94.0091C118.165 94.2543 117.933 94.6034 117.646 95.0468C117.359 95.4996 117.035 95.9902 116.674 96.509C116.313 97.0279 115.961 97.5562 115.6 98.0939C115.248 98.6317 114.914 99.0939 114.609 99.4713C114.433 99.6788 114.359 99.8392 114.377 99.943C114.396 100.047 114.461 100.103 114.581 100.122C114.701 100.141 114.84 100.122 115.016 100.075C115.183 100.018 115.34 99.9619 115.47 99.8864C115.914 99.6128 116.451 99.2355 117.081 98.7449C117.711 98.2638 118.34 97.7543 118.97 97.2355C119.6 96.7166 120.174 96.226 120.683 95.7826C121.193 95.3298 121.554 94.9996 121.757 94.7921C122.026 94.4807 122.257 94.4336 122.443 94.66C122.637 94.8864 122.591 95.1411 122.322 95.4147ZM130.749 100.047C131.832 99.2166 132.999 98.2543 134.221 97.16C135.443 96.0656 136.518 95.0657 137.434 94.1694C137.712 93.9902 137.916 93.9619 138.055 94.0657C138.184 94.1694 138.175 94.3581 137.999 94.6317C136.906 95.7449 135.795 96.8864 134.656 98.0656C133.517 99.2449 132.351 100.292 131.156 101.188C130.573 101.641 130.026 101.924 129.499 102.028C128.971 102.132 128.36 102.075 127.684 101.868C126.998 101.66 126.628 101.311 126.554 100.83C126.489 100.339 126.489 100.009 126.554 99.8392C126.322 100.085 125.961 100.358 125.489 100.669C125.008 100.981 124.489 101.264 123.924 101.5C123.369 101.745 122.804 101.915 122.239 102C121.683 102.084 121.211 102.028 120.841 101.82C120.461 101.613 120.1 101.32 119.739 100.962C119.378 100.594 119.165 100.235 119.1 99.8864C118.933 99.3015 119.044 98.6222 119.433 97.8581C119.822 97.0939 120.331 96.3392 120.961 95.594C121.591 94.8487 122.239 94.1789 122.906 93.5657C123.572 92.9619 124.109 92.4996 124.517 92.1883C125.165 91.6694 125.813 91.2166 126.48 90.8392C127.147 90.4525 127.786 90.1506 128.397 89.9242C129.008 89.6977 129.582 89.5751 130.11 89.5562C130.638 89.5468 131.101 89.66 131.517 89.8959C132.156 90.2826 132.554 90.7355 132.684 91.2543C132.823 91.7732 132.832 92.3109 132.712 92.8675C132.591 93.4241 132.378 93.9619 132.073 94.4807C131.767 94.9996 131.48 95.4524 131.202 95.8298L131.721 96.094C132.027 96.2638 132.165 96.3864 132.156 96.4524C132.138 96.5279 132.045 96.6977 131.869 96.9807L130.545 99.1128C130.267 99.5939 130.1 99.9807 130.036 100.254C129.962 100.528 130.202 100.462 130.749 100.047ZM131.462 92.8675C131.295 92.6883 131.063 92.594 130.776 92.5751C130.48 92.5657 130.156 92.6034 129.804 92.7072C129.443 92.8109 129.073 92.9619 128.674 93.1506C128.286 93.3392 127.924 93.5562 127.582 93.8015C126.998 94.1789 126.461 94.5751 125.971 94.9713C125.48 95.3675 125.146 95.6789 124.971 95.8864C123.748 97.1694 122.943 98.1411 122.544 98.8015C122.156 99.4619 122.118 99.9053 122.424 100.151C122.794 100.424 123.183 100.528 123.591 100.434C124.007 100.349 124.341 100.217 124.619 100.047C125.674 99.4902 126.563 98.7732 127.295 97.8864C128.036 96.9996 128.739 96.1223 129.415 95.2543C129.517 95.0845 129.61 95.0468 129.675 95.1506C129.739 95.2543 129.999 95.3675 130.443 95.4713C130.647 95.1883 130.804 94.9524 130.925 94.7638C131.045 94.5751 131.221 94.2921 131.462 93.9053C131.702 93.4524 131.702 93.1034 131.462 92.8675ZM152.148 94.8958C152.454 94.6128 152.704 94.5751 152.889 94.7638C153.074 94.9524 153.019 95.2072 152.713 95.5185L148.981 99.16C148.231 99.9241 147.324 100.622 146.25 101.245C145.175 101.868 144.111 102.179 143.055 102.179C142.481 102.179 141.972 102.113 141.527 101.971C141.018 101.801 140.768 101.396 140.786 100.773C140.805 100.151 140.944 99.4902 141.222 98.8015C141.453 98.1034 141.777 97.4524 142.194 96.8487C142.601 96.2355 143.027 95.66 143.462 95.1034L144.796 93.4336C145.24 92.8864 145.629 92.2921 145.972 91.6694L145.916 91.4053C144.388 92.4147 143.036 93.4619 141.86 94.5562C140.684 95.6506 139.583 96.7826 138.564 97.9619C137.981 98.66 137.499 99.2638 137.11 99.7826C136.712 100.311 136.305 100.735 135.879 101.066C135.453 101.396 134.962 101.632 134.397 101.792C133.841 101.943 133.11 102.028 132.23 102.028H131.869L131.823 101.971C133.656 99.3675 135.221 97.1222 136.518 95.2355C137.814 93.3392 138.712 91.8581 139.231 90.7826C139.36 90.4713 139.444 90.1977 139.481 89.9808C139.518 89.7543 139.555 89.5751 139.61 89.4525C139.657 89.3393 139.749 89.2638 139.87 89.2449C139.981 89.226 140.194 89.2921 140.499 89.4336C141.184 89.7449 141.647 90.1506 141.879 90.6506C142.12 91.16 141.999 91.9147 141.527 92.9147L140.555 94.8392C141.064 94.3204 141.601 93.8109 142.166 93.3109C142.722 92.8015 143.286 92.3204 143.851 91.8487C144.416 91.377 144.944 90.9619 145.435 90.6034C145.925 90.2355 146.361 89.9525 146.731 89.7449C147.148 89.4996 147.546 89.377 147.935 89.377C148.324 89.377 148.731 89.4147 149.139 89.4808C149.787 89.66 150.176 89.9336 150.315 90.311C150.444 90.6977 150.435 91.1128 150.287 91.5657C150.129 92.0185 149.889 92.4619 149.546 92.9147C149.203 93.3675 148.916 93.7543 148.676 94.0657C148.472 94.377 148.148 94.8204 147.703 95.3864C147.259 95.9619 146.833 96.5562 146.407 97.1883C145.981 97.8109 145.601 98.3958 145.277 98.9524C144.953 99.509 144.796 99.943 144.796 100.254C144.833 100.528 145.148 100.537 145.74 100.283C146.333 100.018 147.25 99.3392 148.472 98.226L152.148 94.8958Z" fill="#FFC204"/>
</svg>
